<svg version="1.1" class="pink layer_5 seeya" xmlns="http://www.w3.org/2000/svg" xmlns:xlink="http://www.w3.org/1999/xlink" x="0px" y="0px"
		viewBox="0 0 446.438 530.975" enable-background="new 0 0 446.438 530.975"
		xml:space="preserve">
	<g>
		<path fill="none" stroke="#000000" stroke-width="3" d="M94.922,72.414c-2.18,1.565-4.527,2.745-7.045,3.54
			c-2.52,0.792-5.164,1.188-7.936,1.188c-3.385,0-6.518-0.55-9.395-1.65c-2.877-1.1-5.469-2.739-7.775-4.919
			c-2.455-2.327-4.348-5.015-5.682-8.062c-1.332-3.047-2-6.231-2-9.554c0-3.236,0.635-6.4,1.904-9.488
			c1.27-3.09,3.068-5.819,5.396-8.189c2.285-2.37,4.936-4.189,7.951-5.459c3.014-1.27,6.193-1.904,9.537-1.904
			c2.518,0,5.082,0.434,7.695,1.301c2.613,0.869,4.016,1.303,4.205,1.303c0.254,0,0.758-0.097,1.508-0.287
			c0.752-0.19,1.371-0.285,1.857-0.285c1.756,0,3.363,1.201,4.824,3.603c1.459,2.401,2.189,5.104,2.189,8.108
			c0,2.116-0.592,3.846-1.777,5.189s-2.688,2.016-4.506,2.016c-2.012,0-3.756-1.195-5.238-3.587c-0.232-0.401-0.422-0.698-0.57-0.889
			c-1.334-2.052-2.867-3.618-4.602-4.697c-1.736-1.079-3.576-1.618-5.523-1.618c-2.391,0-4.268,0.799-5.633,2.396
			s-2.047,3.813-2.047,6.648c0,2.158,0.316,4.195,0.951,6.11s1.555,3.645,2.762,5.188c1.459,1.82,3.115,3.217,4.967,4.189
			c1.852,0.974,3.771,1.46,5.76,1.46c1.65,0,3.191-0.28,4.619-0.841s2.936-1.486,4.521-2.777c0.148-0.127,0.328-0.295,0.541-0.508
			c0.762-0.719,1.428-1.079,1.998-1.079c0.889,0,1.635,0.439,2.238,1.317s0.904,1.983,0.904,3.316c0,2.265-0.641,4.322-1.92,6.174
			s-2.66,2.776-4.143,2.776c-0.127,0-0.227-0.005-0.301-0.016S95.006,72.414,94.922,72.414z M109.125,52.011
			c0-3.29,0.771-6.521,2.314-9.688c1.545-3.166,3.676-5.875,6.396-8.126c2.537-2.125,5.455-3.714,8.76-4.766
			c3.303-1.052,7.035-1.577,11.193-1.577c3.932,0,7.596,0.598,10.99,1.796s6.348,2.933,8.863,5.204
			c2.445,2.208,4.297,4.787,5.555,7.734c1.256,2.949,1.885,6.152,1.885,9.61c0,3.667-0.707,7.001-2.125,10.001
			c-1.416,3.001-3.531,5.657-6.344,7.971c-2.516,2.084-5.424,3.672-8.725,4.766c-3.303,1.094-6.865,1.641-10.682,1.641
			c-2.902,0-5.662-0.338-8.281-1.016c-2.617-0.677-5.068-1.683-7.354-3.016c-3.908-2.313-6.961-5.282-9.154-8.908
			C110.223,60.012,109.125,56.137,109.125,52.011z M128.52,45.69c0,1.715,0.268,3.634,0.801,5.761c0.535,2.126,1.289,4.3,2.264,6.521
			c1.277,2.815,2.729,4.968,4.354,6.459c1.623,1.492,3.342,2.237,5.152,2.237c1.719,0,3.059-0.65,4.021-1.951
			c0.963-1.302,1.445-3.115,1.445-5.443c0-1.799-0.215-3.67-0.645-5.618c-0.43-1.946-1.061-3.893-1.896-5.84
			c-1.463-3.321-2.973-5.733-4.527-7.236c-1.555-1.502-3.309-2.253-5.258-2.253c-1.719,0-3.1,0.662-4.143,1.983
			C129.043,41.632,128.52,43.426,128.52,45.69z M209.598,59.452c0.043-1.353,0.045-1.546,0.045-1.67c0-0.952-0.127-1.66-0.381-2.126
			s-0.645-0.698-1.174-0.698c-0.75,0-1.621,1.126-2.615,3.379 M209.568,60.407 M230.203,72.938 M190.515,65.589
			c-0.385-0.838-2.39-2.582-2.44-2.697c-0.465-1.079-1.037-2.508-1.713-4.285c-1.037-2.771-1.938-4.157-2.699-4.157
			c-0.551,0-0.926,0.508-1.127,1.523s-0.301,3.428-0.301,7.236c0,2.497,0.115,4.067,0.35,4.713c0.232,0.646,0.676,1.138,1.332,1.475
			c0.084,0.044,0.232,0.118,0.445,0.225c1.564,0.783,2.348,1.808,2.348,3.077c0,1.396-0.697,2.386-2.094,2.968
			s-3.799,0.873-7.205,0.873c-3.344,0-5.729-0.291-7.156-0.873c-1.43-0.582-2.143-1.539-2.143-2.872s0.639-2.333,1.92-2.999
			c1.279-0.667,1.963-1.053,2.047-1.158c0.572-0.72,1.01-3.147,1.316-7.283c0.307-4.138,0.461-9.793,0.461-16.966
			c0-2.581-0.148-4.295-0.443-5.142c-0.297-0.846-0.848-1.543-1.65-2.094c-0.127-0.084-0.33-0.223-0.604-0.413
			c-1.672-1.12-2.508-2.307-2.508-3.554c0-1.524,0.836-2.65,2.508-3.381c1.67-0.73,4.23-1.096,7.68-1.096
			c1.969,0,3.709,0.106,5.221,0.317c1.514,0.212,2.514,0.478,3,0.794c0.359,0.254,0.809,0.783,1.35,1.587
			c0.539,0.804,1.602,2.592,3.189,5.364c0.867,1.522,1.924,3.48,3.174,5.871c2.051,3.979,3.574,5.967,4.57,5.967
			c1.035,0,2.486-2,4.348-5.999c1.354-2.92,2.539-5.321,3.555-7.204c0.932-1.714,1.697-3.004,2.301-3.871
			c0.604-0.868,1.137-1.461,1.604-1.778c0.613-0.403,1.428-0.687,2.443-0.857c1.016-0.169,2.951-0.254,5.809-0.254
			c3.639,0,6.199,0.35,7.68,1.048s2.223,1.842,2.223,3.428c0,1.079-0.635,1.979-1.904,2.697c-0.402,0.234-0.678,0.424-0.826,0.571
			c-0.678,0.656-1.164,2.158-1.459,4.507c-0.297,2.349-0.445,5.894-0.445,10.633c0,4.485,0.117,8.193,0.35,11.125
			c0.232,2.93,0.529,4.658,0.889,5.188c0.084,0.105,0.369,0.296,0.857,0.571c1.691,0.952,2.539,2.169,2.539,3.648
			c0,0.357-0.045,0.691-0.133,1.002 M238.51,71.556 M241.906,75.143 M238.51,71.556c0-1.312,0.836-2.465,2.508-3.459
			c0.592-0.358,1.016-0.635,1.27-0.825c0.613-0.466,1.037-1.767,1.27-3.904c0.232-2.137,0.35-6.146,0.35-12.028
			c0-1.016,0.01-2.307,0.031-3.872c0.021-1.564,0.031-2.635,0.031-3.206c0-2.285-0.1-3.919-0.301-4.903
			c-0.201-0.983-0.545-1.666-1.031-2.047c-0.254-0.189-0.646-0.444-1.174-0.762c-1.482-0.889-2.223-1.915-2.223-3.078
			c0-1.63,1.074-2.841,3.223-3.635c2.146-0.793,5.4-1.19,9.758-1.19c4.297,0,7.443,0.376,9.443,1.126c2,0.752,2.998,1.932,2.998,3.54
			c0,1.164-0.576,2.144-1.729,2.936c-1.154,0.794-1.752,1.231-1.793,1.317c-0.424,0.593-0.725,2.65-0.904,6.174
			c-0.182,3.522-0.271,9.199-0.271,17.026c0,2.222,0.086,3.788,0.254,4.697c0.17,0.91,0.455,1.556,0.857,1.937
			c0.254,0.232,0.678,0.561,1.27,0.983c1.439,1.038,2.158,2.138,2.158,3.301c0,1.608-1.068,2.799-3.205,3.571
			s-5.416,1.158-9.84,1.158c-4.104,0-3.839,0.295-6.104-0.065 M280.17,54.259c0-5.269-0.117-8.987-0.35-11.155
			c-0.234-2.17-0.615-3.794-1.143-4.873c-0.297-0.55-0.932-1.036-1.904-1.459c-0.318-0.128-0.551-0.233-0.699-0.318
			c-0.635-0.359-1.121-0.782-1.459-1.27c-0.34-0.486-0.508-1.016-0.508-1.587c0-1.628,0.873-2.787,2.617-3.475
			c1.746-0.687,4.777-1.032,9.094-1.032c1.418,0,2.527,0.064,3.332,0.19c0.805,0.127,1.471,0.328,2,0.604
			c0.826,0.444,1.814,1.147,2.967,2.11c1.154,0.963,3.021,2.661,5.604,5.094c0.295,0.297,0.74,0.709,1.332,1.238
			c6.898,6.496,10.918,9.744,12.061,9.744c0.486,0,0.857-0.255,1.111-0.763s0.516-1.248,0.516-2.222c0-1.079,0.197-2.232,0.197-3.459
			c0-0.296,0-0.486,0-0.571c0-1.481-0.309-2.561-0.658-3.237s-1.067-1.238-2.019-1.682c-0.064-0.043-0.204-0.096-0.353-0.159
			c-1.291-0.593-1.952-1.587-1.952-2.983c0-1.587,0.691-2.698,2.088-3.333s4.067-0.952,8.024-0.952c3.533,0,5.984,0.302,7.361,0.905
			c1.375,0.603,2.062,1.645,2.062,3.126c0,0.848-0.155,1.529-0.462,2.047c-0.307,0.519-1.041,1.074-2.205,1.666
			c-0.867,0.467-1.449,1.016-1.746,1.65s-0.561,2.074-0.793,4.316c-0.189,1.926-0.338,5.133-0.443,9.617
			c-0.043,2.18-0.086,3.84-0.127,4.982c-0.021,0.868-0.064,2.105-0.127,3.714c-0.191,6.603-0.436,10.485-0.73,11.647
			c-0.318,1.418-0.773,2.444-1.365,3.079s-1.365,0.952-2.316,0.952c-0.932,0-2.232-0.598-3.904-1.793s-4.855-3.973-9.553-8.332
			c-1.842-1.692-4.127-3.861-6.855-6.506c-3.83-3.724-6.125-5.586-6.887-5.586c-0.783,0-1.334,0.429-1.65,1.285
			c-0.318,0.857-0.477,2.439-0.477,4.745c0,1.756,0.111,3.337,0.332,4.745c0.223,1.407,0.471,2.29,0.746,2.65
			c0.17,0.232,0.83,0.703,1.984,1.412c1.152,0.709,1.73,1.613,1.73,2.713c0,1.566-0.795,2.735-2.381,3.508
			c-1.588,0.772-3.979,1.158-7.174,1.158c-3.322,0-5.807-0.365-7.457-1.094c-1.65-0.73-2.477-1.837-2.477-3.318
			c0-1.058,0.572-1.979,1.715-2.761c1.143-0.783,1.787-1.269,1.936-1.46c0.486-0.72,0.836-2.031,1.047-3.936
			S280.17,58.745,280.17,54.259z M335.029,52.228c0-3.301,0.703-6.474,2.111-9.521c1.406-3.047,3.41-5.766,6.014-8.157
			c2.455-2.222,5.174-3.882,8.156-4.982c2.984-1.101,6.273-1.65,9.871-1.65c2.877,0,5.936,0.539,9.172,1.619
			c0.953,0.316,1.555,0.476,1.809,0.476c0.424,0,1.096-0.206,2.016-0.619c0.922-0.413,1.635-0.62,2.143-0.62
			c1.82,0,3.412,1.075,4.777,3.223s2.047,4.734,2.047,7.76c0,2.095-0.52,3.735-1.555,4.92c-1.037,1.185-2.465,1.777-4.285,1.777
			c-1.227,0-2.291-0.264-3.189-0.794c-0.9-0.528-1.984-1.65-3.254-3.364c-1.396-1.861-2.756-3.184-4.078-3.967
			s-2.82-1.174-4.49-1.174c-2.814,0-5.111,1.047-6.889,3.142s-2.666,4.803-2.666,8.126c0,5.479,1.195,10.033,3.588,13.662
			c2.391,3.629,5.311,5.443,8.76,5.443c1.078,0,1.908-0.359,2.49-1.079s0.873-1.746,0.873-3.079c0-1.332-1.047-2.096-3.143-2.285
			c-0.232-0.021-0.412-0.042-0.539-0.062c-0.994-0.106-1.809-0.492-2.443-1.159c-0.635-0.666-0.953-1.476-0.953-2.428
			c0-1.883,1.164-3.306,3.492-4.269s5.775-1.443,10.346-1.443c4.613,0,8.051,0.459,10.316,1.381c2.264,0.92,3.395,2.321,3.395,4.204
			c0,0.593-0.131,1.165-0.396,1.714c-0.264,0.551-0.607,0.952-1.031,1.206c-0.635,0.423-1.375,0.757-2.221,1
			c-0.848,0.243-1.291,0.386-1.334,0.429c-0.211,0.211-0.402,0.697-0.57,1.459c-0.043,0.191-0.074,0.34-0.096,0.444
			c-0.402,1.503-0.883,2.794-1.443,3.872c-0.562,1.079-1.297,2.148-2.207,3.207c-1.861,2.221-4.338,3.893-7.426,5.014
			c-3.09,1.121-6.762,1.682-11.014,1.682c-7.85,0-14.172-2.301-18.963-6.902C337.426,65.828,335.029,59.76,335.029,52.228z"/>
		<polyline fill="none" stroke="#000000" stroke-width="3" stroke-miterlimit="10" points="295.438,431.525 409.938,431.525 
			409.938,495.525 29.938,495.525 29.938,431.525 177.438,431.525 	"/>
		
			<line fill="none" stroke="#000000" stroke-width="3" stroke-miterlimit="10" x1="210.438" y1="431.525" x2="245.438" y2="431.525"/>
		<polyline fill="none" stroke="#000000" stroke-width="3" stroke-miterlimit="10" points="176.438,84.525 29.938,84.525 
			29.938,20.525 409.938,20.525 409.938,84.525 309.438,84.525 	"/>
		<line fill="none" stroke="#000000" stroke-width="3" stroke-miterlimit="10" x1="193.438" y1="84.525" x2="185.438" y2="84.525"/>
		<line fill="none" stroke="#000000" stroke-width="3" stroke-miterlimit="10" x1="290.438" y1="84.525" x2="280.438" y2="84.525"/>
		<path fill="none" stroke="#000000" stroke-width="3" d="M183.998,439.01"/>
		<path fill="none" stroke="#000000" stroke-width="3" d="M201,439.049"/>
		<path fill="none" stroke="#000000" stroke-width="3" d="M251.379,438.924"/>
		<path fill="none" stroke="#000000" stroke-width="3" d="M258.211,446.909"/>
		<path fill="none" stroke="#000000" stroke-width="3" d="M279.631,441.217"/>
		<path fill="none" stroke="#000000" stroke-width="3" d="M292.949,438.122"/>
		<polyline fill="none" stroke="#000000" stroke-width="3" stroke-miterlimit="10" points="29.938,180.025 29.938,94.525 
			162.438,94.525 	"/>
		<line fill="none" stroke="#000000" stroke-width="3" stroke-miterlimit="10" x1="29.938" y1="243.025" x2="29.938" y2="226.025"/>
		<line fill="none" stroke="#000000" stroke-width="3" stroke-miterlimit="10" x1="29.938" y1="355.025" x2="29.938" y2="263.025"/>
		<polyline fill="none" stroke="#000000" stroke-width="3" stroke-miterlimit="10" points="132.438,421.525 29.938,421.525 
			29.938,374.025 	"/>
		
			<line fill="none" stroke="#000000" stroke-width="3" stroke-miterlimit="10" x1="239.438" y1="421.525" x2="220.438" y2="421.525"/>
		<polyline fill="none" stroke="#000000" stroke-width="3" stroke-miterlimit="10" points="409.938,318.025 409.938,421.525 
			319.438,421.525 	"/>
		
			<line fill="none" stroke="#000000" stroke-width="3" stroke-miterlimit="10" x1="409.938" y1="297.025" x2="409.938" y2="308.025"/>
		
			<line fill="none" stroke="#000000" stroke-width="3" stroke-miterlimit="10" x1="409.938" y1="235.025" x2="409.938" y2="242.025"/>
		
			<line fill="none" stroke="#000000" stroke-width="3" stroke-miterlimit="10" x1="409.938" y1="128.025" x2="409.938" y2="195.025"/>
		<polyline fill="none" stroke="#000000" stroke-width="3" stroke-miterlimit="10" points="391.438,94.525 409.938,94.525 
			409.938,114.025 	"/>
		<path fill="none" stroke="#000000" stroke-width="3" stroke-miterlimit="10" d="M390.143,94"/>
		<path fill="none" stroke="#000000" stroke-width="3" stroke-miterlimit="10" d="M377.143,94"/>
		<line fill="none" stroke="#000000" stroke-width="3" stroke-miterlimit="10" x1="314.438" y1="94.525" x2="373.438" y2="94.525"/>
		<path fill="none" stroke="#000000" stroke-width="3" stroke-miterlimit="10" d="M204.623,199.497"/>
		<path fill="none" stroke="#000000" stroke-width="3" stroke-miterlimit="10" d="M299.588,252.995
			c5.285-8.131,18.297-10.979,26.836-8.131c3.48,1.069,12.318,6.494,19.012,8.725c4.471,1.221,15.928,4.341,20.402,4.747
			c19.506,1.773,23.207-7.78,40.691-15.507c7.408-3.173,15.678-4.604,25.842-6.91c2.031,19.517-6.797,29.884-19.625,36.012
			c9.756-1.221,12.895,16.443,19.809,21.32c-10.166,6.508-28.059,5.693-38.629,0.812c-11.793-5.689-18.707-17.482-30.498-23.176
			c-10.166-5.286-25.617-10.166-37.408-7.726c-8.135,1.626-8.301,7.397-18.004,8.847c-5.539,0.826-12.902-4.779-13.717-5.188
			c5.674,0.102,15.475-2.117,19.844-5.23c0.965-0.688,4.309-3.903,5.936-7.563C313.164,251.995,307.314,252.182,299.588,252.995
			L299.588,252.995z"/>
		<path fill="none" stroke="#000000" stroke-width="3" stroke-miterlimit="10" d="M296.857,278.575
			c8.131,0.814,19.676,2.986,26.182,6.645c3.256,2.035,11.635,15.312,1.469,16.127c-4.475,0.406-22.873-7.357-26.311-9.398
			c-17.402-10.334-13.236,4.596,0.861,10.914c4.359,1.953,34.033,8.902,33.314,13.93c-0.578,4.045-27.793-4.465-33.076-5.279
			c-8.945-1.627-19.115,2.035-24.398,9.758c11.668-2.039,18.705,0.408,28.057,4.881c10.977,5.287,20.332,12.607,30.094,19.111
			c10.162,6.506,16.668,14.637,26.424,21.551c6.104,4.881,25.621,14.232,32.127,5.289c-6.506-2.848-11.385-8.135-3.252-11.795
			c6.912-3.252,12.199-3.252,14.23-11.385c2.443-8.133-2.031-18.299,0.814-25.617c2.439-6.102,15.115-5.369,19.994-9.031
			c-5.693-5.691-27.719-10.486-35.445-13.334c-6.51-2.439-13.012-5.693-17.484-11.385c-2.848-3.66-3.662-8.543-7.727-12.199
			c-7.32-6.508-21.033-7.074-30.357-6.373C320.023,271.911,308.242,276.948,296.857,278.575L296.857,278.575z"/>
		<path fill="none" stroke="#000000" stroke-width="3" stroke-miterlimit="10" d="M237.225,333.684
			c-0.811,16.67,4.473,34.562,1.219,50.826c-1.625,8.135-4.578,21.383-2.137,29.783c2.578,8.873,17.227,32.697,24.98,34.707
			c3.734-15.078,5.75-19.916,9.281-15.285c4.586,6.014,14.502,12.219,21.004,6.119c2.85-2.846,3.799-11.406,5.832-13.033
			c2.848-2.848,13.006,0.068,17.072-1.967c10.164-4.473,8.545-14.297,8.953-23.65c2.625,2.555,11.889,11.387,14.473,5.498
			c1.795-5.385-1.086-21.693-2.154-27.713c-1.832-10.324-4.998-20.076-11.914-27.801c-15.857-17.484-40.068-22.891-60.994-26.023
			c6.494,5.215,17.486,14.639,23.178,23.176c6.102,8.541,6.102,15.861,7.727,25.617c-10.979-6.912-19.111-20.738-26.838-31.311
			c-3.252-4.064-7.438-14.111-13.941-13.703c-6.914,0.406-1.916,12.078,0.93,16.957c4.066,6.506,10.98,10.572,12.609,18.705
			c1.217,7.318-2.443,21.551-7.729,8.945c-5.285-12.199-9.523-22.971-16.725-33.621C240.762,338.004,238.443,335.311,237.225,333.684
			z"/>
		<path fill="none" stroke="#000000" stroke-width="3" stroke-miterlimit="10" d="M77.152,157.061
			c-5.961-10.432-15.416-21.443-22.594-21.443c-8.383,0-22.859,7.735-9.074,24.201c-14.312,5.888,1.416,16.006,8.152,28.291
			c-9.654-5.367-27.4-14.151-35.455-5.01c-9.283,10.531-3.039,27.881,0.766,32.793c5.816,7.514,8.615,11.994,31.59,16.326
			c-28.336,6.314-25.607,25.475-25.607,25.475c8.041,11.422,24.529,9.078,24.484,9.484c-0.285,2.545-4.553,12.316-5.314,18.164
			c-1.129,8.686,4.891,13.549,11.801,17.207c11.572,6.131,22.473,11.424,36.705,11.424c9.762,0,22.82-1.197,29.541-7.953
			c4.596-4.619,8.998-13.402,8.615-18.762c-25.617,8.537-55.234,9.229-63.365-21.268c6.912,9.35,36.191,25.209,47.168,17.076
			c-5.619-1.459-9.758-2.031-14.23-5.689c-4.475-3.258-8.135-7.729-11.795-11.795c11.795,6.506,28.873,9.352,42.291,9.352
			c-14.225-5.791-29.686-8.539-37.41-22.364c16.266-3.252,26.27,9.741,41.723,9.741c-5.691-10.168-18.951-12.18-28.303-20.313
			c-8.541-7.726-21.959-22.363-19.926-34.968c2.441-13.828,15.047,16.265,17.078,19.923c7.32,12.2,24.398,19.926,37.41,24.397
			c-7.322-17.485-37.41-23.176-33.344-46.355c4.066,0.812,8.344,9.751,10.979,13.824c4.385,6.779,10.303,10.027,17.623,13.69
			c3.723,1.712-11.535-17.823-13.438-22.771c-1.785-4.64-5.816-12.709-5.811-18.567c11.791,6.506,14.803,32.531,29.682,32.124
			c-4.473-6.507-9.352-18.3-8.945-26.026c5.691,6.101,10.375,14.465,18.705,16.672c8.936,2.367,20.996-0.344,20.996-0.344
			c-6.027-11.506-6.139-19.719-7.217-36.24c-0.98-15.014-21.258-35.355-35.49-35.355l-1.148,7.697
			c-6.912-6.909-12.252-19.803-21.604-23.463c-8.541-3.662-16.795-10.339-14.047-22.934C85.371,100.792,70.26,136.383,77.152,157.061
			z"/>
		<path fill="none" stroke="#000000" stroke-width="3" stroke-miterlimit="10" d="M270.904,217.793
			c-1.713,5.729,4.877,16.266-1.223,22.365c-8.537,7.725-0.406,20.332-8.537,28.463c-5.693,5.289-3.252,5.289-5.285,12.605
			c-2.035,6.914-6.914,3.256-13.012,6.1c-10.982,5.287-3.256,19.52-10.168,24.805c-3.252,2.439-15.527,4.643-11.461,11.551
			c2.846,4.475,17.154,1.871,21.221,1.463c8.133-1.221,10.572-6.914,15.045-13.014c2.033-2.846,4.064-5.691,6.506-7.725
			c2.846-2.033,7.727-2.441,9.76-4.881c3.656-3.658,1.625-9.76,3.252-14.639c1.627-5.691,6.912-9.352,8.133-15.047
			c1.012-5.397-2.924-11.051-2.439-18.297c0.406-6.506,4.879-11.79,5.287-18.297C287.982,226.741,273.75,204.782,270.904,217.793"/>
		<path fill="none" stroke="#000000" stroke-width="3" stroke-miterlimit="10" d="M112.391,318.231
			c5.734-0.148,9.758-0.406,14.637-4.064c4.475-3.256,7.727-8.541,10.98-12.201c13.824-15.451,4.879,17.893,19.924,14.641
			c3.252-0.814,5.5-7.283,8.346-8.096c3.66-1.221,7.246,4.486,9.957,6.701c4.807,3.926,6.096,4.24,12.6,2.613
			c4.881-1.219,12.201-6.1,15.857-9.76c2.85-2.846,10.305-10.963,9.084,0.828c-1.221,6.506-8.27,14.623-13.148,17.877
			c-11.385,6.914-23.582,9.352-36.596,11.387c-12.605,2.031-20.041,2.277-30.207-3.416C126.1,330.27,116.457,325.147,112.391,318.231
			z"/>
		<path fill="none" stroke="#000000" stroke-width="3" stroke-miterlimit="10" d="M123.777,347.03
			c-5.289-7.725-15.861-15.449-24.398-19.111c-12.201-4.881-18.707-4.881-28.467,1.627c-2.844-4.471-11.385-24.805-19.926-20.738
			c-9.758,4.881-0.406,25.617,1.629,30.904c-12.199,1.625-26.025,12.605-26.432,26.43c0,7.727,6.914,11.793,14.643,12.199
			c6.91,0,8.941-2.846,11.383-8.945c5.693,6.504,8.455,19.199,19.434,19.605c10.164,0.406,14.723-8.627,18.789-17.166
			c4.473,5.285,12.199,7.727,19.111,4.879c7.727-2.846,8.945-10.979,14.234-15.855c3.25-3.256,16.262-3.66,16.262-8.947
			C140.039,345.405,128.25,347.03,123.777,347.03z"/>
		<path fill="none" stroke="#000000" stroke-width="3" stroke-miterlimit="10" d="M56.945,400.596
			c6.912,0.408,15.047,0.814,21.549-1.625c6.102-2.439,7.322-6.914,12.201-10.979c4.879-4.068,8.133-2.441,12.605,1.625
			c6.508,4.879,21.115,11.549,28.842,13.986c16.67,4.881,22.801,3.5,39.471,3.904c13.014,0.408,21.555,5.693,34.566,2.033
			c4.879-1.221,8.943-6.098,13.822-7.318c7.32-1.219,8.541,6.912,4.475,12.605c-5.287,8.131-11.387,15.291-19.111,20.172
			c-5.285,3.254-4.717,7.115-11.223,8.334c-10.168,2.033-16.598-14.453-23.51-19.334c-7.32-4.879-22.965,3-30.283,3
			c-8.133-0.408-8.584-12.172-15.496-14.611c-6.914-2.033-14.639-0.406-20.334,2.439C89.07,421.743,69.551,409.948,56.945,400.596z"
			/>
		<path fill="none" stroke="#000000" stroke-width="3" stroke-miterlimit="10" d="M112.248,381.928
			c-5.467,7.092,4.879,8.541,8.943,8.541c5.287,0,8.135-3.66,12.607-0.812c5.693,3.252,6.1,9.352,13.416,10.979
			c6.51,1.221,9.762-2.439,15.047-4.066c15.861-4.879,30.496,15.451,46.762,2.846c14.23-11.385,15.047-34.562,19.111-50.828
			c0.812-3.254,1.627-6.506,2.441-9.76c-10.166,15.045-16.268,30.904-38.223,29.684c11.787-7.205,21.516-22.816,23.131-30.037
			c-5.6,5.602-11.34,12.553-17.439,17.025c-9.35,6.912-18.561,8.51-29.947,8.105c7.322-2.873,19.377-6.885,26.289-12.986
			c5.287-4.879,9.352-10.977,14.23-16.67c-9.354,6.506-19.518,11.385-29.275,16.266c-8.133,3.658-21.551,0.812-25.617,7.725
			c-1.629,2.439,0,4.068-3.256,6.102c-1.625,1.217-4.879,0.404-6.914,1.217c-4.879,2.441-4.062,6.916-7.316,10.574
			C130.139,383.149,118.346,377.049,112.248,381.928z"/>
		<path fill="none" stroke="#000000" stroke-width="3" stroke-miterlimit="10" d="M238.779,229.585
			c-24.805-16.672-80.107,9.761-75.633,42.292c2.033-2.037,4.066-3.662,6.506-4.066c1.219,2.439,1.219,6.1-0.406,8.539
			c2.848,0,5.693-1.223,7.318-3.254c0.389,1.738,1.221,3.254,1.629,4.064c5.689-7.32,6.506,6.1,13.826,4.473
			c6.504-1.625,7.316-15.043,13.82-8.943c2.035,1.625,0,7.318,4.881,6.098c2.848-0.812,0.814-6.91,6.1-6.506
			c2.85,0.408,2.033,4.879,5.285,5.285c4.068,0.408,5.367-3.951,5.289-6.91c-0.074-2.742-1.475-5.992,0.152-7.142
			c4.424-3.124,3.506,3.888,6.76,2.669c4.473-1.628,0.812-9.76,2.848-12.2c4.064-5.286,5.898,2.159,10.164-7.726
			C250.236,239.499,240,229.994,238.779,229.585z"/>
		<path fill="none" stroke="#000000" stroke-width="3" stroke-miterlimit="10" d="M233.424,273.432
			c-0.814,6.098-4.631,8.541-6.916,12.605c2.846,0.812,9.295-0.48,11.162-2.633C242.178,278.202,237.08,275.872,233.424,273.432z"/>
		<path fill="none" stroke="#000000" stroke-width="3" stroke-miterlimit="10" d="M241.891,262.311
			c-1.627,3.66,0.812,16.264,6.504,12.197C252.869,271.258,244.736,263.53,241.891,262.311L241.891,262.311z"/>
		<path fill="none" stroke="#000000" stroke-width="3" stroke-miterlimit="10" d="M253.754,239.499
			c0.861,5.924-8.373,13.223-5.621,19.365c1.17,2.613,5.189,2.298,6.822,0.99C263.109,253.32,258.42,244.058,253.754,239.499z"/>
		<path fill="none" stroke="#000000" stroke-width="3" stroke-miterlimit="10" d="M251.721,217.793
			c-2.033,4.068-5.691,8.947-2.033,13.014c4.064,4.879,3.658-1.222,5.693-0.813c2.438,1.22,2.846,6.507,4.473,6.911
			c2.439,0.406,4.879-9.351,4.066-12.199C261.479,217.386,254.568,223.487,251.721,217.793z"/>
		<path fill="none" stroke="#000000" stroke-width="3" stroke-miterlimit="10" d="M233.086,213.727
			c-4.881,7.321,3.254,6.1,7.729,7.727C241.219,216.573,237.967,213.727,233.086,213.727z"/>
		<path fill="none" stroke="#000000" stroke-width="3" stroke-miterlimit="10" d="M225.359,207.629
			c-4.064-4.066-4.473-8.947-7.318-13.826c-0.812,4.879-6.506,13.012-1.221,16.672C218.854,207.221,222.105,206.409,225.359,207.629z
			"/>
		<path fill="none" stroke="#000000" stroke-width="3" stroke-miterlimit="10" d="M225.359,213.321
			c-4.879-2.439-5.689,2.848-7.725,5.287C221.293,219.827,232.68,219.013,225.359,213.321z"/>
		<path fill="none" stroke="#000000" stroke-width="3" stroke-miterlimit="10" d="M200.838,204.782
			c4.594-0.408,7.99,4.472,9.211,8.539c2.441,7.728-0.947,6.506-7.043,8.945C200.564,217.386,204.283,209.661,200.838,204.782
			L200.838,204.782z"/>
		<path fill="none" stroke="#000000" stroke-width="3" stroke-miterlimit="10" d="M187.053,202.75
			c9.189,6.504,16.668,20.331,2.846,23.991C186.645,220.233,190.498,209.663,187.053,202.75L187.053,202.75z"/>
		<path fill="none" stroke="#000000" stroke-width="3" stroke-miterlimit="10" d="M181.445,221.862c-5.287,0-3.66,8.537-4.881,12.604
			c2.033-0.812,7.725-2.033,8.945-4.066C187.139,227.147,184.699,222.674,181.445,221.862z"/>
		<path fill="none" stroke="#000000" stroke-width="3" stroke-miterlimit="10" d="M161.113,223.489
			c2.439,2.031,6.912,2.844,9.758,1.625c0.814,4.472,1.223,9.352,1.629,14.232C166.805,242.191,163.553,227.554,161.113,223.489z"/>
		<path fill="none" stroke="#000000" stroke-width="3" stroke-miterlimit="10" d="M157.047,228.773
			c-2.592,5.692,0,18.704,3.66,23.991c2.033-6.506,4.066-7.32,2.439-13.824C161.924,235.686,159.895,229.18,157.047,228.773z"/>
		<path fill="none" stroke="#000000" stroke-width="3" stroke-miterlimit="10" d="M149.32,239.346
			c-10.977,3.658-2.033,16.67,6.508,15.451C154.607,250.731,151.355,243.817,149.32,239.346z"/>
		<path fill="none" stroke="#000000" stroke-width="3" stroke-miterlimit="10" d="M148.029,261.069
			c-15.078,8.535-5.682,24.43,8.643,34.172c5.289,3.254,11.793,2.439,14.232-4.475c3.66-11.385-10.164-5.691-9.352-13.822
			c-5.693,1.217-6.91,0.811-7.318-5.693C154.234,268.811,152.908,257.002,148.029,261.069L148.029,261.069z"/>
		<path fill="none" stroke="#000000" stroke-width="3" stroke-miterlimit="10" d="M180.938,285.153c-3,4.473-6.05,10.572-3.61,15.451
			c2.846,6.1,11.005,6.1,16.292,4.473c8.539-2.439,9.722-6.91,0.366-8.133c-7.725-1.219-11.048-2.031-13.048-10.979V285.153z"/>
		<path fill="none" stroke="#000000" stroke-width="3" stroke-miterlimit="10" d="M189.984,287.258
			c6.506,1.219,7.725-6.102,12.199-6.914c5.285-0.814,5.285,7.318,6.098,10.979C201.369,291.729,194.863,293.764,189.984,287.258z"/>
		<path fill="none" stroke="#000000" stroke-width="3" stroke-miterlimit="10" d="M214.715,283.122
			c-0.406,4.877-6.91,11.791,3.254,10.977C227.729,293.286,218.783,284.745,214.715,283.122z"/>
		<path fill="none" stroke="#000000" stroke-width="3" stroke-miterlimit="10" d="M330.865,140.685
			c-8.16,5.782-12.555,25.792-15.053,32.096c-6.379,16.1-15.377,24.924-26.898,34.621c4.979-7.892,5.744-10.386,8.496-20.252
			c4.012-14.386,3.254-59.504,5.732-71.058c0.396-3.404,3.926-13.615,7.094-14.894c4.752-2.552,7.105,5.235,12.65,6.513
			c5.543,0.85,12.262-9.064,16.619-6.086c1.977,1.277,3.576,5.883,4.367,7.586c7.936-10.211,43.27-18.766,49.604-20.045
			c-3.564,7.661-15.326,22.361-8.594,26.619c5.939,3.402,26.318-0.699,32.26-4.951c-10.693,15.74-8.084,39.046-17.857,57.17
			c-5.834,10.82-21.725,20.394-35.32,24.988c18.609,8.936,28.01-1.727,37.512-18.325c-0.398,5.532-1.439,10.517,2.832,15.167
			c4.188,4.557,9.025,6.057,12.793,11.359c9.242,13.005,6.602,32.278-9.803,35.291c-1.582,0.424-10.512,1.484-14.471-1.92
			c-6.732-6.385-7.795,1.519-11.754,7.05c-3.961,5.53-9.107,11.064-15.441,7.659c-5.545-2.553-5.238-9.763-11.57-10.186
			c-3.168,0-6.889,4.595-10.059,4.595c-3.562,0-7.67-2.921-11.234-3.771c13.064-5.532,24.943-6.806,29.297-23.4
			c-9.896-0.43-17.678,13.139-27.18,16.545c-5.545,2.125-13.203,3.452-18.746,4.303c-5.939,0.852-12.105-0.019-17.656-3.441
			c12.135,0.072,22.162-2.727,31.664-8.257c9.502-5.106,15.283-9.535,18.451-20.176c-13.064-2.978-24.482,18.31-29.15,15.939
			c-4.904-2.998,21.971-27.714,25.592-33.847c3.242-5.488,3.564-11.492,2.771-17.873c-6.334,0.852-12.271,16.595-14.25,20.426
			c-3.566,7.229-8.314,13.439-15.262,17.58c-3.732,2.227-11.09,2.703-17.424,3.129c14.91-6.24,21.82-17.27,27.285-28.377
			C334.098,170.401,342.904,136.703,330.865,140.685z"/>
		<g>
			<line fill="none" stroke="#000000" stroke-width="3" stroke-miterlimit="10" x1="189.492" y1="94" x2="200.523" y2="93.999"/>
			<path fill="none" stroke="#000000" stroke-width="3" stroke-miterlimit="10" d="M315.439,96c-0.281-2.139-9.219-33.327-34.547-2
				c0.574-7.467-1.045-19.675-8.771-20.082c-5.691-0.406-9.758,1.628-14.229,4.474c-13.828,8.54-9.76-7.726-21.146-6.913
				c-6.912,0.406-8.133,4.473-14.641-1.626c-4.877-4.474-6.707-9.478-13.213-11.103c-3.66-0.814-11.545-2.005-16.625,3.375
				c-2.125,2.25-4.09,10.836-1.875,16.125c2.811,6.71,6.941,10.274,10.131,15.748c0.201,0.347,0.4,0.701,0.594,1.064
				c3.254,6.101-1.984,20.938-1.984,20.938c-4.547-4.523-2.271-13.004-4.156-16.166c-2.482-4.164-6.99-5.99-8.715-10.057
				c-1.562-3.687,0.047-7.32-0.768-11.386l0,0c-8.115,4.956-13.334,7.923-18.688,11.774c-2.146,1.545-3.584,2.898-4.664,3.834
				c-2.129,1.843-4.516,3.906-6.334,5.166c-5.779,4.008-14.795,11.693-13.402,28.427c0.641,8.104,2.295,10.868,26.434,27.245
				c8.133,6.1,12.605,15.373,13.012,25.539c0.408,5.694-2.457,14.737-3.176,18.614c0,0,9.768-9.62,15.461-10.435
				c5.691-0.812,10.441,9.426,10.441,9.426c6.311-4.352,7.51-9.282,8.656-14.979c0,0,19.398,21.036,28.344,11.684
				c6.914-6.913,5.717-23.991,19.135-23.585l0,0c2.848,8.54-3.613,19.556-9.775,25.617c-3.93,3.864-11.848,7.261-13.41,12.108
				c-1.654,5.126,21.334-7.348,25.918-14.911c6.656-10.981,8.713-33.617,14.367-32.167c4.398,4.022-0.449,22.588-3.643,27.477
				c-5.139,7.857-11.807,16.033-19.531,20.911l0,0c10.98-0.815,19.111-6.506,24.803-15.45c9.76-15.858,12.605-39.035,12.199-57.741
				c-0.406-8.538-3.564-17.704-2.346-25.837c0.965-4.504,2.508-11.611,9.848-16.109C304.309,91.834,315.439,96,315.439,96z"/>
		</g>
	</g>
</svg>
