<svg version="1.1" id="pink" class="layer_2 seeya" xmlns="http://www.w3.org/2000/svg" xmlns:xlink="http://www.w3.org/1999/xlink" x="0px" y="0px"
	viewBox="0 0 446.438 530.975" enable-background="new 0 0 446.438 530.975"
	 xml:space="preserve">
<g>
	<polyline fill="none" stroke="#000000" stroke-width="3" stroke-miterlimit="10" points="295.438,431.525 409.938,431.525 
		409.938,495.525 29.938,495.525 29.938,431.525 177.438,431.525 	"/>
	
		<line fill="none" stroke="#000000" stroke-width="3" stroke-miterlimit="10" x1="210.438" y1="431.525" x2="245.438" y2="431.525"/>
	<polyline fill="none" stroke="#000000" stroke-width="3" stroke-miterlimit="10" points="176.438,84.525 29.938,84.525 
		29.938,20.525 409.938,20.525 409.938,84.525 309.438,84.525 	"/>
	<line fill="none" stroke="#000000" stroke-width="3" stroke-miterlimit="10" x1="193.438" y1="84.525" x2="185.438" y2="84.525"/>
	<line fill="none" stroke="#000000" stroke-width="3" stroke-miterlimit="10" x1="290.438" y1="84.525" x2="280.438" y2="84.525"/>
	<path fill="none" stroke="#000000" stroke-width="3" d="M183.998,438.96"/>
	<path fill="none" stroke="#000000" stroke-width="3" d="M201,439"/>
	<path fill="none" stroke="#000000" stroke-width="3" d="M251.379,438.875"/>
	<path fill="none" stroke="#000000" stroke-width="3" d="M258.211,446.859"/>
	<path fill="none" stroke="#000000" stroke-width="3" d="M279.631,441.167"/>
	<path fill="none" stroke="#000000" stroke-width="3" d="M292.949,438.072"/>
	<polyline fill="none" stroke="#000000" stroke-width="3" stroke-miterlimit="10" points="29.938,180.025 29.938,94.525 
		162.438,94.525 	"/>
	<line fill="none" stroke="#000000" stroke-width="3" stroke-miterlimit="10" x1="29.938" y1="243.025" x2="29.938" y2="226.025"/>
	<line fill="none" stroke="#000000" stroke-width="3" stroke-miterlimit="10" x1="29.938" y1="355.025" x2="29.938" y2="263.025"/>
	<polyline fill="none" stroke="#000000" stroke-width="3" stroke-miterlimit="10" points="132.438,421.525 29.938,421.525 
		29.938,374.025 	"/>
	
		<line fill="none" stroke="#000000" stroke-width="3" stroke-miterlimit="10" x1="239.438" y1="421.525" x2="220.438" y2="421.525"/>
	<polyline fill="none" stroke="#000000" stroke-width="3" stroke-miterlimit="10" points="409.938,318.025 409.938,421.525 
		319.438,421.525 	"/>
	
		<line fill="none" stroke="#000000" stroke-width="3" stroke-miterlimit="10" x1="409.938" y1="297.025" x2="409.938" y2="308.025"/>
	
		<line fill="none" stroke="#000000" stroke-width="3" stroke-miterlimit="10" x1="409.938" y1="235.025" x2="409.938" y2="242.025"/>
	
		<line fill="none" stroke="#000000" stroke-width="3" stroke-miterlimit="10" x1="409.938" y1="128.025" x2="409.938" y2="195.025"/>
	<polyline fill="none" stroke="#000000" stroke-width="3" stroke-miterlimit="10" points="391.438,94.525 409.938,94.525 
		409.938,114.025 	"/>
	<path fill="none" stroke="#000000" stroke-width="3" stroke-miterlimit="10" d="M390.143,93.951"/>
	<path fill="none" stroke="#000000" stroke-width="3" stroke-miterlimit="10" d="M377.143,93.951"/>
	<line fill="none" stroke="#000000" stroke-width="3" stroke-miterlimit="10" x1="314.438" y1="94.525" x2="373.438" y2="94.525"/>
	<path fill="none" stroke="#000000" stroke-width="3" stroke-miterlimit="10" d="M204.623,199.447"/>
	<path fill="none" stroke="#000000" stroke-width="3" stroke-miterlimit="10" d="M299.588,252.945
		c5.285-8.131,18.297-10.979,26.836-8.131c3.48,1.069,12.318,6.494,19.012,8.725c4.471,1.221,15.928,4.341,20.402,4.747
		c19.506,1.773,23.207-7.78,40.691-15.507c7.408-3.173,15.678-4.604,25.842-6.91c2.031,19.517-6.797,29.884-19.625,36.012
		c9.756-1.221,12.895,16.443,19.809,21.32c-10.166,6.508-28.059,5.693-38.629,0.812c-11.793-5.689-18.707-17.482-30.498-23.176
		c-10.166-5.286-25.617-10.166-37.408-7.726c-8.135,1.626-8.301,7.397-18.004,8.847c-5.539,0.826-12.902-4.779-13.717-5.188
		c5.674,0.102,15.475-2.117,19.844-5.23c0.965-0.688,4.309-3.903,5.936-7.563C313.164,251.945,307.314,252.132,299.588,252.945
		L299.588,252.945z"/>
	<path fill="none" stroke="#000000" stroke-width="3" stroke-miterlimit="10" d="M296.857,278.525
		c8.131,0.814,19.676,2.986,26.182,6.645c3.256,2.035,11.635,15.312,1.469,16.127c-4.475,0.406-22.873-7.357-26.311-9.398
		c-17.402-10.334-13.236,4.596,0.861,10.914c4.359,1.953,34.034,8.902,33.315,13.93c-0.578,4.045-27.793-4.465-33.077-5.279
		c-8.945-1.627-19.115,2.035-24.398,9.758c11.668-2.039,18.705,0.408,28.057,4.881c10.977,5.287,20.332,12.607,30.094,19.111
		c10.162,6.506,16.668,14.637,26.424,21.551c6.104,4.881,25.621,14.232,32.127,5.289c-6.506-2.848-11.385-8.135-3.252-11.795
		c6.912-3.252,12.199-3.252,14.23-11.385c2.443-8.133-2.031-18.299,0.814-25.617c2.439-6.102,15.115-5.369,19.994-9.031
		c-5.693-5.691-27.719-10.486-35.445-13.334c-6.51-2.439-13.012-5.693-17.484-11.385c-2.848-3.66-3.662-8.543-7.727-12.199
		c-7.32-6.508-21.033-7.074-30.357-6.373C320.023,271.861,308.242,276.898,296.857,278.525L296.857,278.525z"/>
	<path fill="none" stroke="#000000" stroke-width="3" stroke-miterlimit="10" d="M237.225,333.634
		c-0.811,16.67,4.473,34.562,1.219,50.826c-1.625,8.135-4.578,21.383-2.137,29.783c2.578,8.873,17.227,32.697,24.98,34.707
		c3.734-15.078,5.75-19.916,9.281-15.285c4.586,6.014,14.502,12.219,21.004,6.119c2.85-2.846,3.799-11.406,5.832-13.033
		c2.848-2.848,13.006,0.068,17.072-1.967c10.165-4.473,8.545-14.297,8.953-23.65c2.625,2.555,11.889,11.387,14.473,5.498
		c1.795-5.385-1.086-21.693-2.154-27.713c-1.832-10.324-4.998-20.076-11.915-27.801c-15.857-17.484-40.068-22.891-60.994-26.023
		c6.494,5.215,17.486,14.639,23.178,23.176c6.102,8.541,6.102,15.861,7.727,25.617c-10.979-6.912-19.111-20.738-26.838-31.311
		c-3.252-4.064-7.438-14.111-13.941-13.703c-6.914,0.406-1.916,12.078,0.93,16.957c4.066,6.506,10.98,10.572,12.609,18.705
		c1.217,7.318-2.443,21.551-7.729,8.945c-5.285-12.199-9.523-22.971-16.725-33.621C240.762,337.955,238.443,335.261,237.225,333.634
		z"/>
	<path fill="none" stroke="#000000" stroke-width="3" stroke-miterlimit="10" d="M77.152,157.011
		c-5.961-10.432-15.416-21.443-22.594-21.443c-8.383,0-22.859,7.735-9.074,24.201c-14.312,5.888,1.416,16.006,8.152,28.291
		c-9.654-5.367-27.4-14.151-35.455-5.01c-9.283,10.531-3.039,27.881,0.766,32.793c5.816,7.514,8.615,11.994,31.59,16.326
		c-28.336,6.314-25.607,25.475-25.607,25.475c8.041,11.422,24.529,9.078,24.484,9.484c-0.285,2.545-4.553,12.316-5.314,18.164
		c-1.129,8.686,4.891,13.549,11.801,17.207c11.572,6.131,22.473,11.424,36.705,11.424c9.762,0,22.82-1.197,29.541-7.953
		c4.596-4.619,8.998-13.402,8.615-18.762c-25.617,8.537-55.234,9.229-63.365-21.268c6.912,9.35,36.191,25.209,47.168,17.076
		c-5.619-1.459-9.758-2.031-14.23-5.689c-4.475-3.258-8.135-7.729-11.795-11.795c11.795,6.506,28.873,9.352,42.291,9.352
		c-14.225-5.791-29.686-8.539-37.41-22.364c16.266-3.252,26.27,9.741,41.723,9.741c-5.691-10.168-18.951-12.18-28.303-20.313
		c-8.541-7.726-21.959-22.363-19.926-34.968c2.441-13.828,15.047,16.265,17.078,19.923c7.32,12.2,24.398,19.926,37.41,24.397
		c-7.322-17.485-37.41-23.176-33.344-46.355c4.066,0.812,8.344,9.751,10.979,13.824c4.385,6.779,10.303,10.027,17.623,13.69
		c3.723,1.712-11.535-17.823-13.438-22.771c-1.785-4.64-5.816-12.709-5.811-18.567c11.791,6.506,14.803,32.531,29.682,32.124
		c-4.473-6.507-9.352-18.3-8.945-26.026c5.691,6.101,10.375,14.465,18.705,16.672c8.936,2.367,20.996-0.344,20.996-0.344
		c-6.027-11.506-6.139-19.719-7.217-36.24c-0.98-15.014-21.258-35.355-35.49-35.355l-1.148,7.697
		c-6.912-6.909-12.252-19.803-21.604-23.463c-8.541-3.662-16.795-10.339-14.047-22.934C85.371,100.742,70.26,136.333,77.152,157.011
		z"/>
	<path fill="none" stroke="#000000" stroke-width="3" stroke-miterlimit="10" d="M270.904,217.744
		c-1.713,5.729,4.877,16.266-1.223,22.365c-8.537,7.725-0.406,20.332-8.537,28.463c-5.693,5.289-3.252,5.289-5.285,12.605
		c-2.035,6.914-6.914,3.256-13.012,6.1c-10.982,5.287-3.256,19.52-10.168,24.805c-3.252,2.439-15.527,4.643-11.461,11.551
		c2.846,4.475,17.154,1.871,21.221,1.463c8.133-1.221,10.572-6.914,15.045-13.014c2.033-2.846,4.064-5.691,6.506-7.725
		c2.846-2.033,7.727-2.441,9.76-4.881c3.656-3.658,1.625-9.76,3.252-14.639c1.627-5.691,6.912-9.352,8.133-15.047
		c1.012-5.397-2.924-11.051-2.439-18.297c0.406-6.506,4.879-11.79,5.287-18.297C287.982,226.691,273.75,204.732,270.904,217.744"/>
	<path fill="none" stroke="#000000" stroke-width="3" stroke-miterlimit="10" d="M112.391,318.181
		c5.734-0.148,9.758-0.406,14.637-4.064c4.475-3.256,7.727-8.541,10.98-12.201c13.824-15.451,4.879,17.893,19.924,14.641
		c3.252-0.814,5.5-7.283,8.346-8.096c3.66-1.221,7.246,4.486,9.957,6.701c4.807,3.926,6.096,4.24,12.6,2.613
		c4.881-1.219,12.201-6.1,15.857-9.76c2.85-2.846,10.305-10.963,9.084,0.828c-1.221,6.506-8.27,14.623-13.148,17.877
		c-11.385,6.914-23.582,9.352-36.596,11.387c-12.605,2.031-20.041,2.277-30.207-3.416C126.1,330.22,116.457,325.097,112.391,318.181
		z"/>
	<path fill="none" stroke="#000000" stroke-width="3" stroke-miterlimit="10" d="M123.777,346.98
		c-5.289-7.725-15.861-15.449-24.398-19.111c-12.201-4.881-18.707-4.881-28.467,1.627c-2.844-4.471-11.385-24.805-19.926-20.738
		c-9.758,4.881-0.406,25.617,1.629,30.904c-12.199,1.625-26.025,12.605-26.432,26.43c0,7.727,6.914,11.793,14.643,12.199
		c6.91,0,8.941-2.846,11.383-8.945c5.693,6.504,8.455,19.199,19.434,19.605c10.164,0.406,14.723-8.627,18.789-17.166
		c4.473,5.285,12.199,7.727,19.111,4.879c7.727-2.846,8.945-10.979,14.234-15.855c3.25-3.256,16.262-3.66,16.262-8.947
		C140.039,345.355,128.25,346.98,123.777,346.98z"/>
	<path fill="none" stroke="#000000" stroke-width="3" stroke-miterlimit="10" d="M56.945,400.546
		c6.912,0.408,15.047,0.814,21.549-1.625c6.102-2.439,7.322-6.914,12.201-10.979c4.879-4.068,8.133-2.441,12.605,1.625
		c6.508,4.879,21.115,11.549,28.842,13.986c16.67,4.881,22.801,3.5,39.471,3.904c13.014,0.408,21.555,5.693,34.566,2.033
		c4.879-1.221,8.943-6.098,13.822-7.318c7.32-1.219,8.541,6.912,4.475,12.605c-5.287,8.131-11.387,15.291-19.111,20.172
		c-5.285,3.254-4.717,7.115-11.223,8.334c-10.168,2.033-16.598-14.453-23.51-19.334c-7.32-4.879-22.965,3-30.283,3
		c-8.133-0.408-8.584-12.172-15.496-14.611c-6.914-2.033-14.639-0.406-20.334,2.439C89.07,421.693,69.551,409.898,56.945,400.546z"
		/>
	<path fill="none" stroke="#000000" stroke-width="3" stroke-miterlimit="10" d="M112.248,381.878
		c-5.467,7.092,4.879,8.541,8.943,8.541c5.287,0,8.135-3.66,12.607-0.812c5.693,3.252,6.1,9.352,13.416,10.979
		c6.51,1.221,9.762-2.439,15.047-4.066c15.861-4.879,30.496,15.451,46.762,2.846c14.23-11.385,15.047-34.562,19.111-50.828
		c0.812-3.254,1.627-6.506,2.441-9.76c-10.166,15.045-16.268,30.904-38.223,29.684c11.787-7.205,21.516-22.816,23.131-30.037
		c-5.6,5.602-11.34,12.553-17.439,17.025c-9.35,6.912-18.561,8.51-29.947,8.105c7.322-2.873,19.377-6.885,26.289-12.986
		c5.287-4.879,9.352-10.977,14.23-16.67c-9.354,6.506-19.518,11.385-29.275,16.266c-8.133,3.658-21.551,0.812-25.617,7.725
		c-1.629,2.439,0,4.068-3.256,6.102c-1.625,1.217-4.879,0.404-6.914,1.217c-4.879,2.441-4.062,6.916-7.316,10.574
		C130.139,383.099,118.346,377,112.248,381.878z"/>
	<path fill="none" stroke="#000000" stroke-width="3" stroke-miterlimit="10" d="M238.779,229.536
		c-24.805-16.672-80.107,9.761-75.633,42.292c2.033-2.037,4.066-3.662,6.506-4.066c1.219,2.439,1.219,6.1-0.406,8.539
		c2.848,0,5.693-1.223,7.318-3.254c0.389,1.738,1.221,3.254,1.629,4.064c5.689-7.32,6.506,6.1,13.826,4.473
		c6.504-1.625,7.316-15.043,13.82-8.943c2.035,1.625,0,7.318,4.881,6.098c2.848-0.812,0.814-6.91,6.1-6.506
		c2.85,0.408,2.033,4.879,5.285,5.285c4.068,0.408,5.367-3.951,5.289-6.91c-0.074-2.742-1.475-5.992,0.152-7.142
		c4.424-3.124,3.506,3.888,6.76,2.669c4.473-1.628,0.812-9.76,2.848-12.2c4.064-5.286,5.898,2.159,10.164-7.726
		C250.236,239.449,240,229.944,238.779,229.536z"/>
	<path fill="none" stroke="#000000" stroke-width="3" stroke-miterlimit="10" d="M233.424,273.382
		c-0.814,6.098-4.631,8.541-6.916,12.605c2.846,0.812,9.295-0.48,11.162-2.633C242.178,278.152,237.08,275.822,233.424,273.382z"/>
	<path fill="none" stroke="#000000" stroke-width="3" stroke-miterlimit="10" d="M241.891,262.261
		c-1.627,3.66,0.812,16.264,6.504,12.197C252.869,271.208,244.736,263.48,241.891,262.261L241.891,262.261z"/>
	<path fill="none" stroke="#000000" stroke-width="3" stroke-miterlimit="10" d="M253.754,239.449
		c0.861,5.924-8.373,13.223-5.621,19.365c1.17,2.613,5.189,2.298,6.822,0.99C263.109,253.27,258.42,244.008,253.754,239.449z"/>
	<path fill="none" stroke="#000000" stroke-width="3" stroke-miterlimit="10" d="M251.721,217.744
		c-2.033,4.068-5.691,8.947-2.033,13.014c4.064,4.879,3.658-1.222,5.693-0.813c2.438,1.22,2.846,6.507,4.473,6.911
		c2.439,0.406,4.879-9.351,4.066-12.199C261.479,217.336,254.568,223.437,251.721,217.744z"/>
	<path fill="none" stroke="#000000" stroke-width="3" stroke-miterlimit="10" d="M233.086,213.677
		c-4.881,7.321,3.254,6.1,7.729,7.727C241.219,216.523,237.967,213.677,233.086,213.677z"/>
	<path fill="none" stroke="#000000" stroke-width="3" stroke-miterlimit="10" d="M225.359,207.58
		c-4.064-4.066-4.473-8.947-7.318-13.826c-0.812,4.879-6.506,13.012-1.221,16.672C218.854,207.171,222.105,206.359,225.359,207.58z"
		/>
	<path fill="none" stroke="#000000" stroke-width="3" stroke-miterlimit="10" d="M225.359,213.271
		c-4.879-2.439-5.689,2.848-7.725,5.287C221.293,219.777,232.68,218.963,225.359,213.271z"/>
	<path fill="none" stroke="#000000" stroke-width="3" stroke-miterlimit="10" d="M200.838,204.732
		c4.594-0.408,7.99,4.472,9.211,8.539c2.441,7.728-0.947,6.506-7.043,8.945C200.564,217.336,204.283,209.611,200.838,204.732
		L200.838,204.732z"/>
	<path fill="none" stroke="#000000" stroke-width="3" stroke-miterlimit="10" d="M187.053,202.7
		c9.189,6.504,16.668,20.331,2.846,23.991C186.645,220.183,190.498,209.613,187.053,202.7L187.053,202.7z"/>
	<path fill="none" stroke="#000000" stroke-width="3" stroke-miterlimit="10" d="M181.445,221.812c-5.287,0-3.66,8.537-4.881,12.604
		c2.033-0.812,7.725-2.033,8.945-4.066C187.139,227.097,184.699,222.625,181.445,221.812z"/>
	<path fill="none" stroke="#000000" stroke-width="3" stroke-miterlimit="10" d="M161.113,223.439
		c2.439,2.031,6.912,2.844,9.758,1.625c0.814,4.472,1.223,9.352,1.629,14.232C166.805,242.141,163.553,227.504,161.113,223.439z"/>
	<path fill="none" stroke="#000000" stroke-width="3" stroke-miterlimit="10" d="M157.047,228.723
		c-2.592,5.692,0,18.704,3.66,23.991c2.033-6.506,4.066-7.32,2.439-13.824C161.924,235.636,159.895,229.13,157.047,228.723z"/>
	<path fill="none" stroke="#000000" stroke-width="3" stroke-miterlimit="10" d="M149.32,239.296
		c-10.977,3.658-2.033,16.67,6.508,15.451C154.607,250.681,151.355,243.767,149.32,239.296z"/>
	<path fill="none" stroke="#000000" stroke-width="3" stroke-miterlimit="10" d="M148.029,261.019
		c-15.078,8.535-5.682,24.43,8.643,34.172c5.289,3.254,11.793,2.439,14.232-4.475c3.66-11.385-10.164-5.691-9.352-13.822
		c-5.693,1.217-6.91,0.811-7.318-5.693C154.234,268.761,152.908,256.953,148.029,261.019L148.029,261.019z"/>
	<path fill="none" stroke="#000000" stroke-width="3" stroke-miterlimit="10" d="M180.938,285.103c-3,4.473-6.05,10.572-3.61,15.451
		c2.846,6.1,11.004,6.1,16.291,4.473c8.539-2.439,9.723-6.91,0.367-8.133c-7.725-1.219-11.048-2.031-13.048-10.979V285.103z"/>
	<path fill="none" stroke="#000000" stroke-width="3" stroke-miterlimit="10" d="M189.984,287.208
		c6.506,1.219,7.725-6.102,12.199-6.914c5.285-0.814,5.285,7.318,6.098,10.979C201.369,291.679,194.863,293.714,189.984,287.208z"/>
	<path fill="none" stroke="#000000" stroke-width="3" stroke-miterlimit="10" d="M214.715,283.072
		c-0.406,4.877-6.91,11.791,3.254,10.977C227.729,293.236,218.783,284.695,214.715,283.072z"/>
	<path fill="none" stroke="#000000" stroke-width="3" stroke-miterlimit="10" d="M330.866,140.635
		c-8.161,5.782-12.555,25.792-15.053,32.096c-6.379,16.1-15.377,24.924-26.898,34.621c4.979-7.892,5.744-10.386,8.496-20.252
		c4.012-14.386,3.254-59.504,5.732-71.058c0.396-3.404,3.926-13.615,7.094-14.894c4.752-2.552,7.105,5.235,12.65,6.513
		c5.543,0.85,12.262-9.064,16.62-6.086c1.977,1.277,3.576,5.883,4.367,7.586c7.936-10.211,43.27-18.766,49.604-20.045
		c-3.564,7.661-15.326,22.361-8.594,26.619c5.939,3.402,26.318-0.699,32.26-4.951c-10.693,15.74-8.084,39.046-17.857,57.17
		c-5.834,10.82-21.725,20.394-35.32,24.988c18.609,8.936,28.01-1.727,37.512-18.325c-0.398,5.532-1.439,10.517,2.832,15.167
		c4.188,4.557,9.025,6.057,12.793,11.359c9.242,13.005,6.602,32.278-9.803,35.291c-1.582,0.424-10.512,1.484-14.471-1.92
		c-6.732-6.385-7.795,1.519-11.754,7.05c-3.961,5.53-9.107,11.064-15.441,7.659c-5.545-2.553-5.238-9.763-11.57-10.186
		c-3.168,0-6.889,4.595-10.059,4.595c-3.562,0-7.67-2.921-11.234-3.771c13.064-5.532,24.943-6.806,29.297-23.4
		c-9.896-0.43-17.678,13.139-27.18,16.545c-5.545,2.125-13.204,3.452-18.747,4.303c-5.939,0.852-12.105-0.019-17.656-3.441
		c12.135,0.072,22.162-2.727,31.665-8.257c9.502-5.106,15.283-9.535,18.451-20.176c-13.064-2.978-24.483,18.31-29.151,15.939
		c-4.904-2.998,21.971-27.714,25.592-33.847c3.242-5.488,3.564-11.492,2.771-17.873c-6.334,0.852-12.271,16.595-14.25,20.426
		c-3.566,7.229-8.314,13.439-15.262,17.58c-3.732,2.227-11.09,2.703-17.424,3.129c14.91-6.24,21.82-17.27,27.286-28.377
		C334.098,170.351,342.905,136.653,330.866,140.635z"/>
	<g>
		<line fill="none" stroke="#000000" stroke-width="3" stroke-miterlimit="10" x1="189.492" y1="93.951" x2="200.523" y2="93.949"/>
		<path fill="none" stroke="#000000" stroke-width="3" stroke-miterlimit="10" d="M315.439,95.951
			c-0.281-2.139-9.219-33.327-34.547-2c0.574-7.467-1.045-19.675-8.771-20.082c-5.691-0.406-9.758,1.628-14.229,4.474
			c-13.828,8.54-9.76-7.726-21.146-6.913c-6.912,0.406-8.133,4.473-14.641-1.626c-4.877-4.474-6.707-9.478-13.213-11.103
			c-3.66-0.814-11.545-2.005-16.625,3.375c-2.125,2.25-4.09,10.836-1.875,16.125c2.811,6.71,6.941,10.274,10.131,15.748
			c0.201,0.347,0.4,0.701,0.594,1.064c3.254,6.101-1.984,20.938-1.984,20.938c-4.547-4.523-2.271-13.004-4.156-16.166
			c-2.482-4.164-6.99-5.99-8.715-10.057c-1.562-3.687,0.047-7.32-0.768-11.386l0,0c-8.115,4.956-13.334,7.923-18.688,11.774
			c-2.146,1.545-3.584,2.898-4.664,3.834c-2.129,1.843-4.516,3.906-6.334,5.166c-5.779,4.008-14.795,11.693-13.402,28.427
			c0.641,8.104,2.295,10.868,26.434,27.245c8.133,6.1,12.605,15.373,13.012,25.539c0.408,5.694-2.457,14.737-3.176,18.614
			c0,0,9.768-9.62,15.461-10.435c5.691-0.812,10.441,9.426,10.441,9.426c6.311-4.352,7.51-9.282,8.656-14.979
			c0,0,19.398,21.036,28.344,11.684c6.914-6.913,5.717-23.991,19.135-23.585l0,0c2.848,8.54-3.613,19.556-9.775,25.617
			c-3.93,3.864-11.848,7.261-13.41,12.108c-1.654,5.126,21.334-7.348,25.918-14.911c6.656-10.981,8.713-33.617,14.367-32.167
			c4.398,4.022-0.449,22.588-3.643,27.477c-5.139,7.857-11.807,16.033-19.531,20.911l0,0c10.98-0.815,19.111-6.506,24.803-15.45
			c9.76-15.858,12.605-39.035,12.199-57.741c-0.406-8.538-3.564-17.704-2.346-25.837c0.965-4.504,2.508-11.611,9.848-16.109
			C304.309,91.785,315.439,95.951,315.439,95.951z"/>
	</g>
</g>
</svg>
