<svg version="1.1" id="pink" class="layer_3 seeya" xmlns="http://www.w3.org/2000/svg" xmlns:xlink="http://www.w3.org/1999/xlink" x="0px" y="0px"
	  viewBox="0 0 446.438 530.975" enable-background="new 0 0 446.438 530.975"
	 xml:space="preserve">
<g>
	<polyline fill="none" stroke="#000000" stroke-width="3" stroke-miterlimit="10" points="296,431.525 410.5,431.525 410.5,495.525 
		30.5,495.525 30.5,431.525 178,431.525 	"/>
	<line fill="none" stroke="#000000" stroke-width="3" stroke-miterlimit="10" x1="211" y1="431.525" x2="246" y2="431.525"/>
	<polyline fill="none" stroke="#000000" stroke-width="3" stroke-miterlimit="10" points="177,84.525 30.5,84.525 30.5,20.525 
		410.5,20.525 410.5,84.525 310,84.525 	"/>
	<line fill="none" stroke="#000000" stroke-width="3" stroke-miterlimit="10" x1="194" y1="84.525" x2="186" y2="84.525"/>
	<line fill="none" stroke="#000000" stroke-width="3" stroke-miterlimit="10" x1="291" y1="84.525" x2="281" y2="84.525"/>
	<path fill="none" stroke="#000000" stroke-width="3" d="M183.998,439.111"/>
	<path fill="none" stroke="#000000" stroke-width="3" d="M201,439.15"/>
	<path fill="none" stroke="#000000" stroke-width="3" d="M251.378,439.025"/>
	<path fill="none" stroke="#000000" stroke-width="3" d="M258.21,447.009"/>
	<path fill="none" stroke="#000000" stroke-width="3" d="M279.63,441.318"/>
	<path fill="none" stroke="#000000" stroke-width="3" d="M292.949,438.222"/>
	<path fill="none" stroke="#000000" stroke-width="3" d="M45.398,71.012c0-1.474,0.941-2.621,2.826-3.439
		c0.488-0.225,0.859-0.399,1.117-0.522c0.627-0.348,1.068-1.408,1.324-3.179s0.385-5.093,0.385-9.966
		c0-4.811-0.094-8.691-0.279-11.64c-0.188-2.948-0.432-4.627-0.732-5.037c-0.326-0.43-0.908-0.772-1.744-1.029
		c-0.838-0.256-1.338-0.445-1.5-0.568c-0.559-0.41-0.932-0.778-1.117-1.106c-0.186-0.327-0.279-0.727-0.279-1.198
		c0-1.29,0.582-2.252,1.744-2.887c1.164-0.634,2.92-0.952,5.268-0.952c0.211,0,1.582,0.031,4.117,0.092s4.965,0.092,7.291,0.092
		c7.768,0,15.164-0.296,22.188-0.891c0.93-0.082,1.465-0.123,1.605-0.123c1.58,0,3.01,1.04,4.291,3.117
		c1.277,2.078,1.918,4.458,1.918,7.141c0,1.413-0.355,2.503-1.064,3.271c-0.709,0.768-1.703,1.152-2.982,1.152
		c-1.164,0-2.523-0.757-4.082-2.273c-0.348-0.327-0.615-0.583-0.803-0.768c-1.441-1.331-2.965-2.257-4.568-2.779
		c-1.605-0.522-3.932-0.783-6.979-0.783c-1.303,0-2.309,0.097-3.018,0.292c-0.709,0.195-1.133,0.487-1.273,0.875
		c-0.186,0.553-0.354,1.597-0.506,3.132c-0.15,1.536-0.227,3.225-0.227,5.068c0,0.532,0.15,0.875,0.453,1.029
		c0.303,0.153,1.223,0.23,2.756,0.23c1.094,0,1.885-0.148,2.373-0.445c0.488-0.296,0.85-0.844,1.082-1.643
		c0.045-0.164,0.104-0.389,0.174-0.675c0.512-2.068,1.617-3.102,3.314-3.102s2.941,0.819,3.732,2.457
		c0.791,1.638,1.186,4.238,1.186,7.801c0,3.665-0.43,6.373-1.291,8.123c-0.859,1.75-2.186,2.626-3.977,2.626
		c-0.697,0-1.332-0.21-1.9-0.63c-0.57-0.419-0.914-0.916-1.029-1.489c-0.047-0.225-0.105-0.522-0.174-0.891
		c-0.535-2.928-1.908-4.392-4.117-4.392c-1.047,0-1.67,0.113-1.985,0.338c-0.314,0.226-0.415,0.901-0.415,2.027v0.337
		c0,2.969,0.083,5.211,0.362,6.726c0.279,1.516,0.693,2.396,1.297,2.641c0.443,0.184,1.057,0.349,1.871,0.491
		c0.812,0.144,1.306,0.267,1.494,0.369c0.674,0.369,1.165,0.783,1.479,1.244c0.312,0.46,0.469,1.019,0.469,1.673
		c0,1.782-1.135,3.066-3.403,3.854s-6.064,1.183-11.391,1.183c-5.465,0-9.378-0.389-11.739-1.167
		C46.58,74.042,45.398,72.773,45.398,71.012z"/>
	<path fill="none" stroke="#000000" stroke-width="3" d="M126.623,76.525h-24.941c-1.396,0-2.496-0.944-3.297-1.65
		c-0.803-0.707-1.205-1.97-1.205-3.198s0.838-2.45,2.512-3.372c0.744-0.43,1.268-0.852,1.57-1.118
		c0.65-0.634,0.839-1.686,1.109-3.078c0.266-1.392,0.13-4.377,0.13-8.881v-5.743c0-4.442,0.194-7.401,0.044-8.875
		c-0.152-1.474-0.277-2.396-0.65-2.764c-0.256-0.246-0.711-0.471-1.502-0.676c-0.791-0.204-1.28-0.368-1.536-0.491
		c-0.559-0.348-0.943-0.732-1.187-1.152c-0.244-0.419-0.357-0.947-0.357-1.582c0-1.536,1.33-2.723,3.982-3.562
		c2.65-0.839,6.443-1.259,11.373-1.259c4.838,0,8.491,0.379,10.956,1.136c2.465,0.758,3.698,1.884,3.698,3.378
		c0,1.331-0.931,2.375-2.79,3.133c-0.559,0.226-0.99,0.42-1.291,0.583c-0.629,0.369-1.041,0.691-1.238,0.967
		s-0.355,0.732-0.471,1.367c-0.117,0.88-0.045,2.272-0.103,4.177c-0.059,1.904,0.072,4.699,0.072,8.384v5.037
		c0,2.56-0.13,4.469-0.071,5.728c0.057,1.259,0.064,2.114,0.182,2.564c0.162,0.553,0.617,0.978,1.441,1.275
		c0.826,0.297,1.917,0.445,3.312,0.445c2.605,0,4.553-0.307,5.868-0.921s2.35-1.699,3.117-3.255
		c0.164-0.328,0.359-0.788,0.591-1.382c0.674-1.74,1.66-2.61,2.963-2.61c1.373,0,2.536,0.491,3.489,1.474s1.431,2.211,1.431,3.686
		c0,1.393-0.351,3.02-1.048,4.883c-0.697,1.864-1.559,3.44-2.582,4.73c-0.58,0.757-1.238,1.336-1.971,1.735
		c-0.732,0.399-1.225,0.766-2.039,0.766c-0.07,0-1.172,0.276-1.566,0.195C132.082,76.083,129.808,76.525,126.623,76.525z"/>
	<path fill="none" stroke="#000000" stroke-width="3" d="M202.183,58.15 M189.978,72.898 M202.183,58.15
		c0.43-1.875,0.549-3.347,0.549-5.315c0-3.398-0.639-6.671-1.918-9.569c-1.279-2.897-3.164-5.493-5.652-7.664
		c-2.559-2.231-5.564-3.967-9.018-5.145c-3.453-1.177-7.182-1.781-11.182-1.781c-4.232,0-8.029,0.509-11.391,1.543
		c-3.359,1.034-6.33,2.591-8.912,4.68c-2.768,2.211-4.938,4.871-6.506,7.983c-1.57,3.113-2.355,6.285-2.355,9.52
		c0,4.054,1.117,7.862,3.35,11.424s5.338,6.48,9.314,8.752c2.324,1.311,4.818,2.299,7.482,2.964
		c2.662,0.665,5.471,0.998,8.426,0.998c3.883,0,7.506-0.538,10.867-1.612c1.691-0.542,3.256-1.235,4.74-2.03 M181.853,64.333
		c-0.965,1.259-2.309,1.889-4.029,1.889c-1.814,0-3.535-0.722-5.164-2.165c-1.627-1.443-3.082-3.526-4.359-6.25
		c-0.977-2.149-1.734-4.253-2.268-6.311c-0.535-2.058-0.803-3.916-0.803-5.574c0-2.19,0.523-3.926,1.57-5.206
		c1.047-1.279,2.43-1.919,4.15-1.919c1.953,0,3.709,0.727,5.268,2.181s3.07,3.788,4.535,7.002c0.838,1.884,1.471,3.768,1.902,5.651
		c0.43,1.884,0.645,3.696,0.645,5.436C183.3,61.318,182.818,63.073,181.853,64.333z"/>
	<path fill="none" stroke="#000000" stroke-width="3" d="M233.574,72.439c0.525-0.973,1.068-2.165,1.627-3.577l4.918-12.438
		c0.232-0.512,0.43-0.849,0.594-1.014c0.162-0.164,0.348-0.246,0.559-0.246c0.395,0,0.742,0.379,1.045,1.136
		c0.047,0.103,0.082,0.185,0.105,0.246l4.709,12.192c1.256,3.214,2.361,5.308,3.314,6.28s2.186,1.459,3.697,1.459
		c2.605,0,5.535-3.87,8.793-11.609c0.859-2.047,1.545-3.655,2.057-4.822l7.432-16.953c0.115-0.266,0.268-0.625,0.453-1.075
		c1.162-2.743,2.652-4.463,4.465-5.16l0.176-0.061c1.93-0.799,2.895-1.976,2.895-3.532c0-1.515-0.697-2.574-2.094-3.178
		c-1.395-0.604-4-0.906-7.812-0.906c-3.049,0-5.396,0.374-7.047,1.121c-1.652,0.748-2.479,1.817-2.479,3.209
		c0,0.573,0.141,1.064,0.42,1.474s0.709,0.778,1.291,1.105c0.186,0.103,0.418,0.215,0.697,0.338
		c0.836,0.369,1.256,0.891,1.256,1.566c0,0.328-0.111,0.85-0.332,1.566c-0.221,0.717-0.518,1.495-0.889,2.334l-2.373,5.405
		c-0.582,1.31-1.023,2.17-1.326,2.58c-0.303,0.41-0.592,0.614-0.871,0.614c-0.512,0-1.326-1.249-2.443-3.747
		c-0.023-0.061-0.047-0.112-0.068-0.153l-1.92-4.392c-0.115-0.287-0.303-0.707-0.557-1.259c-0.723-1.638-1.082-2.753-1.082-3.348
		c0-0.348,0.477-0.952,1.43-1.812s1.43-1.679,1.43-2.457c0-1.454-0.895-2.508-2.686-3.163s-4.686-0.983-8.686-0.983
		c-4.629,0-7.967,0.353-10.014,1.06s-3.068,1.838-3.068,3.394c0,0.41,0.104,0.855,0.312,1.336c0.211,0.481,0.465,0.855,0.768,1.121
		c0.047,0.042,0.129,0.103,0.244,0.184c1.047,0.676,1.826,1.689,2.338,3.041l0.838,2.181c0.045,0.123,0.104,0.276,0.174,0.46
		c0.371,0.942,0.559,1.505,0.559,1.689c0,0.144-0.047,0.343-0.141,0.599c-0.092,0.256-0.244,0.62-0.453,1.09l-1.465,3.562
		c-0.256,0.594-0.494,1.009-0.715,1.244s-0.494,0.353-0.82,0.353c-0.279,0-0.564-0.179-0.855-0.538
		c-0.291-0.358-0.574-0.896-0.854-1.612l-3.279-7.862c-0.303-0.675-0.535-1.285-0.697-1.827c-0.164-0.542-0.244-0.957-0.244-1.244
		c0-0.164,0.348-0.599,1.045-1.306c0.699-0.706,1.047-1.571,1.047-2.595c0-1.495-0.977-2.59-2.93-3.286
		c-1.953-0.696-5.023-1.044-9.211-1.044c-4.395,0-7.744,0.476-10.047,1.428s-3.453,2.339-3.453,4.161
		c0,1.311,0.824,2.293,2.477,2.949c0.232,0.082,0.406,0.143,0.523,0.184c1.418,0.594,2.732,2.314,3.941,5.16
		c0.211,0.471,0.373,0.84,0.488,1.105l6.559,14.957c0.932,2.088,2.064,4.755,3.402,8c0.107,0.262-0.125,0.044,1.148,2.759"/>
	<path fill="none" stroke="#000000" stroke-width="3" d="M316.332,76.525h-25.85c-2.188,0-3.664-0.821-4.432-1.282
		s-1.15-1.57-1.15-2.737c0-1.187,0.824-2.338,2.477-3.157c0.791-0.409,1.348-0.821,1.674-1.087c0.814-0.737,1.402-2.5,1.762-5.212
		c0.361-2.713,0.541-7.179,0.541-13.363c0-4.218-0.121-7.267-0.365-9.13c-0.244-1.863-0.646-3.055-1.205-3.567
		c-0.186-0.164-0.971-0.565-2.354-1.2c-1.385-0.634-2.076-1.557-2.076-2.765c0-1.125,0.541-1.987,1.623-2.581
		c1.08-0.594,2.656-0.891,4.727-0.891c0.371,0,2.668,0.041,6.889,0.123c4.223,0.083,8.264,0.123,12.123,0.123
		c6.094,0,11.455-0.266,16.083-0.798c0.441-0.041,0.699-0.062,0.768-0.062c1.908,0,3.443,0.85,4.605,2.549
		c1.162,1.7,1.744,3.952,1.744,6.757c0,1.638-0.389,2.938-1.168,3.9s-1.82,1.443-3.123,1.443c-1.373,0-2.674-0.788-3.906-2.365
		c-0.396-0.512-0.711-0.88-0.943-1.105c-1.024-1.024-2.227-1.761-3.61-2.211c-1.385-0.45-3.135-0.676-5.25-0.676
		c-2.676,0-4.408,0.067-5.199,0.2c-0.791,0.133-1.348,0.364-1.674,0.691c-0.279,0.287-0.5,1.009-0.662,2.165
		c-0.164,1.157-0.244,2.677-0.244,4.561c0,1.781,0.191,2.856,0.574,3.225c0.385,0.369,1.332,0.553,2.844,0.553
		c1.094,0,1.867-0.153,2.32-0.46s0.797-0.932,1.029-1.874c0.045-0.164,0.104-0.399,0.174-0.707c0.559-2.641,1.65-3.961,3.279-3.961
		c1.697,0,2.977,0.773,3.838,2.318c0.859,1.546,1.291,3.875,1.291,6.987c0,3.809-0.461,6.68-1.379,8.615
		c-0.918,1.935-2.262,2.902-4.029,2.902c-1.582,0-2.57-1.105-2.965-3.317c-0.023-0.123-0.047-0.215-0.07-0.276
		c-0.279-1.536-0.627-2.482-1.047-2.841c-0.418-0.358-1.209-0.538-2.371-0.538c-1.326,0-2.193,0.236-2.6,0.707
		c-0.406,0.471-0.611,1.638-0.611,3.501c0,2.641,0.07,4.366,0.211,5.175c0.139,0.809,0.383,1.388,0.732,1.735
		c0.348,0.369,0.971,0.629,1.865,0.783c0.896,0.153,2.438,0.23,4.623,0.23c2.674,0,4.9-0.297,6.68-0.891s3.215-1.515,4.309-2.764
		c0.42-0.45,0.93-1.105,1.535-1.966c1.209-1.781,2.512-2.672,3.908-2.672c1.348,0,2.377,0.364,3.086,1.09
		c0.711,0.727,1.064,1.787,1.064,3.179c0,1.495-0.244,3.03-0.732,4.607s-1.197,3.123-2.127,4.637
		c-0.814,1.352-1.564,2.299-2.252,2.841c-0.686,0.542-1.066,1.059-1.881,1.059c-0.092,0-0.775,0.295-1.311,0.192
		C324.425,76.261,320.494,76.525,316.332,76.525z"/>
	<path fill="none" stroke="#000000" stroke-width="3" d="M363.5,56.486v6.081c0,1.924-0.048,3.22,0.091,3.885
		c0.141,0.666,0.325,1.111,0.674,1.336c0.23,0.164,0.575,0.379,1.086,0.645c1.768,0.921,2.638,2.007,2.638,3.255
		c0,1.516-1.001,2.585-2.992,3.209c-1.988,0.624-5.522,0.937-10.591,0.937c-5.072,0-8.719-0.338-10.939-1.013
		c-2.221-0.676-3.332-1.782-3.332-3.317c0-1.208,0.963-2.262,2.895-3.164c0.301-0.143,0.558-0.266,0.769-0.369
		c0.557-0.266,0.907-1.822,1.268-4.668c0.361-2.846,0.433-6.613,0.433-11.302v-2.334c0-5.057,0.003-8.343-0.206-9.858
		s-0.529-2.437-1.062-2.764c-0.303-0.185-0.751-0.419-1.404-0.707c-1.812-0.818-2.708-1.822-2.708-3.01
		c0-1.208,0.799-2.119,2.381-2.733c1.58-0.614,3.931-0.921,7.048-0.921c0.418,0,1.422,0.011,3.004,0.031
		c1.58,0.021,2.965,0.031,4.15,0.031c1.932,0,4.45-0.041,7.553-0.123c3.105-0.082,5.251-0.123,6.437-0.123
		c6.092,0,10.775,1.019,14.042,3.056c3.268,2.038,4.902,4.96,4.902,8.769c0,1.822-0.408,3.435-1.223,4.837
		c-0.814,1.403-2.023,2.575-3.627,3.517c-0.373,0.226-0.896,0.481-1.57,0.768c-1.094,0.491-1.639,0.932-1.639,1.321
		c0,0.471,0.709,0.891,2.127,1.259c1.418,0.369,2.465,0.768,3.141,1.198c1.395,0.86,2.506,1.986,3.33,3.378
		c0.826,1.393,1.461,3.246,1.902,5.559c0.047,0.266,0.104,0.625,0.174,1.075c0.418,2.293,0.941,3.542,1.57,3.747
		c0.162,0.062,0.371,0.134,0.627,0.215c2.279,0.758,3.42,1.72,3.42,2.887c0,1.516-1.088,2.744-3.262,3.686
		c-2.176,0.941-5.064,1.413-8.67,1.413c-2.139,0-4-0.189-5.582-0.568c-1.58-0.378-2.895-0.947-3.941-1.704
		c-1.861-1.352-3.406-4.095-4.641-8.231c-0.023-0.102-0.047-0.194-0.068-0.276c-0.07-0.246-0.188-0.645-0.35-1.198
		c-1.535-5.323-3.605-7.985-6.209-7.985c-0.35,0-0.558,0.026-0.858,0.077C363.987,56.337,363.5,56.404,363.5,56.486z
		 M362.984,48.624c0.559,0.123,0.988,0.205,1.291,0.246c0.303,0.042,0.57,0.062,0.803,0.062c1.861,0,3.191-0.507,3.994-1.52
		c0.803-1.014,1.203-2.728,1.203-5.145c0-1.842-0.406-3.204-1.221-4.084c-0.814-0.88-2.07-1.321-3.768-1.321
		c-1,0-1.829,0.287-2.144,0.86s-0.644,1.965-0.644,4.177v2.825c0,0.963,0.185,1.72,0.208,2.273
		C362.731,47.549,362.938,48.091,362.984,48.624z"/>
	<polyline fill="none" stroke="#000000" stroke-width="3" stroke-miterlimit="10" points="30.5,180.025 30.5,94.525 163,94.525 	"/>
	<line fill="none" stroke="#000000" stroke-width="3" stroke-miterlimit="10" x1="30.5" y1="243.025" x2="30.5" y2="226.025"/>
	<line fill="none" stroke="#000000" stroke-width="3" stroke-miterlimit="10" x1="30.5" y1="355.025" x2="30.5" y2="263.025"/>
	<polyline fill="none" stroke="#000000" stroke-width="3" stroke-miterlimit="10" points="133,421.525 30.5,421.525 30.5,374.025 	
		"/>
	<line fill="none" stroke="#000000" stroke-width="3" stroke-miterlimit="10" x1="240" y1="421.525" x2="221" y2="421.525"/>
	<polyline fill="none" stroke="#000000" stroke-width="3" stroke-miterlimit="10" points="410.5,318.025 410.5,421.525 320,421.525 
			"/>
	<line fill="none" stroke="#000000" stroke-width="3" stroke-miterlimit="10" x1="410.5" y1="297.025" x2="410.5" y2="308.025"/>
	<line fill="none" stroke="#000000" stroke-width="3" stroke-miterlimit="10" x1="410.5" y1="235.025" x2="410.5" y2="242.025"/>
	<line fill="none" stroke="#000000" stroke-width="3" stroke-miterlimit="10" x1="410.5" y1="128.025" x2="410.5" y2="195.025"/>
	<polyline fill="none" stroke="#000000" stroke-width="3" stroke-miterlimit="10" points="392,94.525 410.5,94.525 410.5,114.025 	
		"/>
	<path fill="none" stroke="#000000" stroke-width="3" stroke-miterlimit="10" d="M390.143,94.101"/>
	<path fill="none" stroke="#000000" stroke-width="3" stroke-miterlimit="10" d="M377.143,94.101"/>
	<line fill="none" stroke="#000000" stroke-width="3" stroke-miterlimit="10" x1="315" y1="94.525" x2="374" y2="94.525"/>
	<path fill="none" stroke="#000000" stroke-width="3" stroke-miterlimit="10" d="M204.623,199.597"/>
	<path fill="none" stroke="#000000" stroke-width="3" stroke-miterlimit="10" d="M299.587,253.095
		c5.285-8.131,18.297-10.979,26.836-8.131c3.48,1.069,12.318,6.494,19.012,8.725c4.471,1.221,15.928,4.341,20.402,4.747
		c19.506,1.773,23.207-7.78,40.691-15.507c7.408-3.173,15.678-4.604,25.842-6.91c2.031,19.517-6.797,29.884-19.625,36.012
		c9.756-1.221,12.895,16.443,19.809,21.32c-10.166,6.508-28.059,5.693-38.629,0.812c-11.793-5.689-18.707-17.482-30.498-23.176
		c-10.166-5.286-25.617-10.166-37.408-7.726c-8.135,1.626-8.301,7.397-18.004,8.847c-5.539,0.826-12.902-4.779-13.717-5.188
		c5.674,0.102,15.475-2.117,19.844-5.23c0.965-0.688,4.309-3.903,5.936-7.563C313.164,252.095,307.314,252.283,299.587,253.095
		L299.587,253.095z"/>
	<path fill="none" stroke="#000000" stroke-width="3" stroke-miterlimit="10" d="M296.857,278.675
		c8.131,0.814,19.676,2.986,26.182,6.645c3.256,2.035,11.635,15.312,1.469,16.127c-4.475,0.406-22.873-7.357-26.311-9.398
		c-17.402-10.334-13.236,4.596,0.861,10.914c4.359,1.953,34.034,8.902,33.315,13.93c-0.578,4.045-27.793-4.465-33.077-5.279
		c-8.945-1.627-19.115,2.035-24.398,9.758c11.668-2.039,18.705,0.408,28.057,4.881c10.977,5.287,20.332,12.607,30.094,19.111
		c10.162,6.506,16.668,14.637,26.424,21.551c6.104,4.881,25.621,14.232,32.127,5.289c-6.506-2.848-11.385-8.135-3.252-11.795
		c6.912-3.252,12.199-3.252,14.23-11.385c2.443-8.133-2.031-18.299,0.814-25.617c2.439-6.102,15.115-5.369,19.994-9.031
		c-5.693-5.691-27.719-10.486-35.445-13.334c-6.51-2.439-13.012-5.693-17.484-11.385c-2.848-3.66-3.662-8.543-7.727-12.199
		c-7.32-6.508-21.033-7.074-30.357-6.373C320.023,272.011,308.242,277.048,296.857,278.675L296.857,278.675z"/>
	<path fill="none" stroke="#000000" stroke-width="3" stroke-miterlimit="10" d="M237.224,333.785
		c-0.811,16.67,4.473,34.562,1.219,50.826c-1.625,8.135-4.578,21.383-2.137,29.783c2.578,8.873,17.227,32.697,24.98,34.707
		c3.734-15.078,5.75-19.916,9.281-15.285c4.586,6.014,14.502,12.219,21.004,6.119c2.85-2.846,3.799-11.406,5.832-13.033
		c2.848-2.848,13.006,0.068,17.072-1.967c10.165-4.473,8.545-14.297,8.953-23.65c2.625,2.555,11.889,11.387,14.473,5.498
		c1.795-5.385-1.086-21.693-2.154-27.713c-1.832-10.324-4.998-20.076-11.915-27.801c-15.857-17.484-40.068-22.891-60.994-26.023
		c6.494,5.215,17.486,14.639,23.178,23.176c6.102,8.541,6.102,15.861,7.727,25.617c-10.979-6.912-19.111-20.738-26.838-31.311
		c-3.252-4.064-7.438-14.111-13.941-13.703c-6.914,0.406-1.916,12.078,0.93,16.957c4.066,6.506,10.98,10.572,12.609,18.705
		c1.217,7.318-2.443,21.551-7.729,8.945c-5.285-12.199-9.523-22.971-16.725-33.621C240.761,338.105,238.443,335.412,237.224,333.785
		z"/>
	<path fill="none" stroke="#000000" stroke-width="3" stroke-miterlimit="10" d="M77.152,157.162
		c-5.961-10.432-15.416-21.443-22.594-21.443c-8.383,0-22.859,7.735-9.074,24.201c-14.312,5.888,1.416,16.006,8.152,28.291
		c-9.654-5.367-27.4-14.151-35.455-5.01c-9.283,10.531-3.039,27.881,0.766,32.793c5.816,7.514,8.615,11.994,31.59,16.326
		c-28.336,6.314-25.607,25.475-25.607,25.475c8.041,11.422,24.529,9.078,24.484,9.484c-0.285,2.545-4.553,12.316-5.314,18.164
		c-1.129,8.686,4.891,13.549,11.801,17.207c11.572,6.131,22.473,11.424,36.705,11.424c9.762,0,22.82-1.197,29.541-7.953
		c4.596-4.619,8.998-13.402,8.615-18.762c-25.617,8.537-55.234,9.229-63.365-21.268c6.912,9.35,36.191,25.209,47.168,17.076
		c-5.619-1.459-9.758-2.031-14.23-5.689c-4.475-3.258-8.135-7.729-11.795-11.795c11.795,6.506,28.873,9.352,42.291,9.352
		c-14.225-5.791-29.686-8.539-37.41-22.364c16.266-3.252,26.27,9.741,41.723,9.741c-5.691-10.168-18.951-12.18-28.303-20.313
		c-8.541-7.726-21.959-22.363-19.926-34.968c2.441-13.828,15.047,16.265,17.078,19.923c7.32,12.2,24.398,19.926,37.41,24.397
		c-7.322-17.485-37.41-23.176-33.344-46.355c4.066,0.812,8.344,9.751,10.979,13.824c4.385,6.779,10.303,10.027,17.623,13.69
		c3.723,1.712-11.535-17.823-13.438-22.771c-1.785-4.64-5.816-12.709-5.811-18.567c11.791,6.506,14.803,32.531,29.682,32.124
		c-4.473-6.507-9.352-18.3-8.945-26.026c5.691,6.101,10.375,14.465,18.705,16.672c8.936,2.367,20.996-0.344,20.996-0.344
		c-6.027-11.506-6.139-19.719-7.217-36.24c-0.98-15.014-21.258-35.355-35.49-35.355l-1.148,7.697
		c-6.912-6.909-12.252-19.803-21.604-23.463c-8.541-3.662-16.795-10.339-14.047-22.934
		C85.371,100.892,70.259,136.484,77.152,157.162z"/>
	<path fill="none" stroke="#000000" stroke-width="3" stroke-miterlimit="10" d="M270.904,217.894
		c-1.713,5.729,4.877,16.266-1.223,22.365c-8.537,7.725-0.406,20.332-8.537,28.463c-5.693,5.289-3.252,5.289-5.285,12.605
		c-2.035,6.914-6.914,3.256-13.012,6.1c-10.982,5.287-3.256,19.52-10.168,24.805c-3.252,2.439-15.527,4.643-11.461,11.551
		c2.846,4.475,17.154,1.871,21.221,1.463c8.133-1.221,10.572-6.914,15.045-13.014c2.033-2.846,4.064-5.691,6.506-7.725
		c2.846-2.033,7.727-2.441,9.76-4.881c3.656-3.658,1.625-9.76,3.252-14.639c1.627-5.691,6.912-9.352,8.133-15.047
		c1.012-5.397-2.924-11.051-2.439-18.297c0.406-6.506,4.879-11.79,5.287-18.297C287.982,226.841,273.75,204.882,270.904,217.894"/>
	<path fill="none" stroke="#000000" stroke-width="3" stroke-miterlimit="10" d="M112.39,318.332
		c5.734-0.148,9.758-0.406,14.637-4.064c4.475-3.256,7.727-8.541,10.98-12.201c13.824-15.451,4.879,17.893,19.924,14.641
		c3.252-0.814,5.5-7.283,8.346-8.096c3.66-1.221,7.246,4.486,9.957,6.701c4.807,3.926,6.096,4.24,12.6,2.613
		c4.881-1.219,12.201-6.1,15.857-9.76c2.85-2.846,10.305-10.963,9.084,0.828c-1.221,6.506-8.27,14.623-13.148,17.877
		c-11.385,6.914-23.582,9.352-36.596,11.387c-12.605,2.031-20.041,2.277-30.207-3.416
		C126.099,330.371,116.457,325.248,112.39,318.332z"/>
	<path fill="none" stroke="#000000" stroke-width="3" stroke-miterlimit="10" d="M123.777,347.13
		c-5.289-7.725-15.861-15.449-24.398-19.111c-12.201-4.881-18.707-4.881-28.467,1.627c-2.844-4.471-11.385-24.805-19.926-20.738
		c-9.758,4.881-0.406,25.617,1.629,30.904c-12.199,1.625-26.025,12.605-26.432,26.43c0,7.727,6.914,11.793,14.643,12.199
		c6.91,0,8.941-2.846,11.383-8.945c5.693,6.504,8.455,19.199,19.434,19.605c10.164,0.406,14.723-8.627,18.789-17.166
		c4.473,5.285,12.199,7.727,19.111,4.879c7.727-2.846,8.945-10.979,14.234-15.855c3.25-3.256,16.262-3.66,16.262-8.947
		C140.039,345.505,128.25,347.13,123.777,347.13z"/>
	<path fill="none" stroke="#000000" stroke-width="3" stroke-miterlimit="10" d="M56.945,400.697
		c6.912,0.408,15.047,0.814,21.549-1.625c6.102-2.439,7.322-6.914,12.201-10.979c4.879-4.068,8.133-2.441,12.605,1.625
		c6.508,4.879,21.115,11.549,28.842,13.986c16.67,4.881,22.801,3.5,39.471,3.904c13.014,0.408,21.555,5.693,34.566,2.033
		c4.879-1.221,8.943-6.098,13.822-7.318c7.32-1.219,8.541,6.912,4.475,12.605c-5.287,8.131-11.387,15.291-19.111,20.172
		c-5.285,3.254-4.717,7.115-11.223,8.334c-10.168,2.033-16.598-14.453-23.51-19.334c-7.32-4.879-22.965,3-30.283,3
		c-8.133-0.408-8.584-12.172-15.496-14.611c-6.914-2.033-14.639-0.406-20.334,2.439C89.07,421.843,69.55,410.048,56.945,400.697z"/>
	<path fill="none" stroke="#000000" stroke-width="3" stroke-miterlimit="10" d="M112.248,382.029
		c-5.467,7.092,4.879,8.541,8.943,8.541c5.287,0,8.135-3.66,12.607-0.812c5.693,3.252,6.1,9.352,13.416,10.979
		c6.51,1.221,9.762-2.439,15.047-4.066c15.861-4.879,30.496,15.451,46.762,2.846c14.23-11.385,15.047-34.562,19.111-50.828
		c0.812-3.254,1.627-6.506,2.441-9.76c-10.166,15.045-16.268,30.904-38.223,29.684c11.787-7.205,21.516-22.816,23.131-30.037
		c-5.6,5.602-11.34,12.553-17.439,17.025c-9.35,6.912-18.561,8.51-29.947,8.105c7.322-2.873,19.377-6.885,26.289-12.986
		c5.287-4.879,9.352-10.977,14.23-16.67c-9.354,6.506-19.518,11.385-29.275,16.266c-8.133,3.658-21.551,0.812-25.617,7.725
		c-1.629,2.439,0,4.068-3.256,6.102c-1.625,1.217-4.879,0.404-6.914,1.217c-4.879,2.441-4.062,6.916-7.316,10.574
		C130.138,383.25,118.345,377.15,112.248,382.029z"/>
	<path fill="none" stroke="#000000" stroke-width="3" stroke-miterlimit="10" d="M238.779,229.686
		c-24.805-16.672-80.107,9.761-75.633,42.292c2.033-2.037,4.066-3.662,6.506-4.066c1.219,2.439,1.219,6.1-0.406,8.539
		c2.848,0,5.693-1.223,7.318-3.254c0.389,1.738,1.221,3.254,1.629,4.064c5.689-7.32,6.506,6.1,13.826,4.473
		c6.504-1.625,7.316-15.043,13.82-8.943c2.035,1.625,0,7.318,4.881,6.098c2.848-0.812,0.814-6.91,6.1-6.506
		c2.85,0.408,2.033,4.879,5.285,5.285c4.068,0.408,5.367-3.951,5.289-6.91c-0.074-2.742-1.475-5.992,0.152-7.142
		c4.424-3.124,3.506,3.888,6.76,2.669c4.473-1.628,0.812-9.76,2.848-12.2c4.064-5.286,5.898,2.159,10.164-7.726
		C250.236,239.599,240,230.094,238.779,229.686z"/>
	<path fill="none" stroke="#000000" stroke-width="3" stroke-miterlimit="10" d="M233.423,273.533
		c-0.814,6.098-4.631,8.541-6.916,12.605c2.846,0.812,9.295-0.48,11.162-2.633C242.177,278.302,237.08,275.972,233.423,273.533z"/>
	<path fill="none" stroke="#000000" stroke-width="3" stroke-miterlimit="10" d="M241.89,262.412
		c-1.627,3.66,0.812,16.264,6.504,12.197C252.869,271.359,244.736,263.63,241.89,262.412L241.89,262.412z"/>
	<path fill="none" stroke="#000000" stroke-width="3" stroke-miterlimit="10" d="M253.753,239.599
		c0.861,5.924-8.373,13.223-5.621,19.365c1.17,2.613,5.189,2.298,6.822,0.99C263.109,253.42,258.419,244.159,253.753,239.599z"/>
	<path fill="none" stroke="#000000" stroke-width="3" stroke-miterlimit="10" d="M251.72,217.894
		c-2.033,4.068-5.691,8.947-2.033,13.014c4.064,4.879,3.658-1.222,5.693-0.813c2.438,1.22,2.846,6.507,4.473,6.911
		c2.439,0.406,4.879-9.351,4.066-12.199C261.478,217.487,254.568,223.587,251.72,217.894z"/>
	<path fill="none" stroke="#000000" stroke-width="3" stroke-miterlimit="10" d="M233.085,213.828
		c-4.881,7.321,3.254,6.1,7.729,7.727C241.218,216.673,237.966,213.828,233.085,213.828z"/>
	<path fill="none" stroke="#000000" stroke-width="3" stroke-miterlimit="10" d="M225.359,207.73
		c-4.064-4.066-4.473-8.947-7.318-13.826c-0.812,4.879-6.506,13.012-1.221,16.672C218.853,207.322,222.105,206.509,225.359,207.73z"
		/>
	<path fill="none" stroke="#000000" stroke-width="3" stroke-miterlimit="10" d="M225.359,213.421
		c-4.879-2.439-5.689,2.848-7.725,5.287C221.292,219.927,232.679,219.114,225.359,213.421z"/>
	<path fill="none" stroke="#000000" stroke-width="3" stroke-miterlimit="10" d="M200.837,204.882
		c4.594-0.408,7.99,4.472,9.211,8.539c2.441,7.728-0.947,6.506-7.043,8.945C200.564,217.487,204.283,209.761,200.837,204.882
		L200.837,204.882z"/>
	<path fill="none" stroke="#000000" stroke-width="3" stroke-miterlimit="10" d="M187.052,202.85
		c9.189,6.504,16.668,20.331,2.846,23.991C186.644,220.333,190.498,209.763,187.052,202.85L187.052,202.85z"/>
	<path fill="none" stroke="#000000" stroke-width="3" stroke-miterlimit="10" d="M181.445,221.962c-5.287,0-3.66,8.537-4.881,12.604
		c2.033-0.812,7.725-2.033,8.945-4.066C187.138,227.248,184.699,222.775,181.445,221.962z"/>
	<path fill="none" stroke="#000000" stroke-width="3" stroke-miterlimit="10" d="M161.113,223.589
		c2.439,2.031,6.912,2.844,9.758,1.625c0.814,4.472,1.223,9.352,1.629,14.232C166.804,242.292,163.552,227.655,161.113,223.589z"/>
	<path fill="none" stroke="#000000" stroke-width="3" stroke-miterlimit="10" d="M157.046,228.874
		c-2.592,5.692,0,18.704,3.66,23.991c2.033-6.506,4.066-7.32,2.439-13.824C161.923,235.787,159.894,229.281,157.046,228.874z"/>
	<path fill="none" stroke="#000000" stroke-width="3" stroke-miterlimit="10" d="M149.32,239.447
		c-10.977,3.658-2.033,16.67,6.508,15.451C154.607,250.832,151.355,243.917,149.32,239.447z"/>
	<path fill="none" stroke="#000000" stroke-width="3" stroke-miterlimit="10" d="M148.029,261.169
		c-15.078,8.535-5.682,24.43,8.643,34.172c5.289,3.254,11.793,2.439,14.232-4.475c3.66-11.385-10.164-5.691-9.352-13.822
		c-5.693,1.217-6.91,0.811-7.318-5.693C154.234,268.912,152.908,257.103,148.029,261.169L148.029,261.169z"/>
	<path fill="none" stroke="#000000" stroke-width="3" stroke-miterlimit="10" d="M181.5,285.253c-3,4.473-6.331,10.572-3.892,15.451
		c2.846,6.1,10.863,6.1,16.15,4.473c8.539-2.439,9.934-6.91,0.578-8.133c-7.725-1.219-10.837-2.031-12.837-10.979V285.253z"/>
	<path fill="none" stroke="#000000" stroke-width="3" stroke-miterlimit="10" d="M189.984,287.359
		c6.506,1.219,7.725-6.102,12.199-6.914c5.285-0.814,5.285,7.318,6.098,10.979C201.369,291.83,194.863,293.865,189.984,287.359z"/>
	<path fill="none" stroke="#000000" stroke-width="3" stroke-miterlimit="10" d="M214.714,283.222
		c-0.406,4.877-6.91,11.791,3.254,10.977C227.728,293.386,218.783,284.845,214.714,283.222z"/>
	<path fill="none" stroke="#000000" stroke-width="3" stroke-miterlimit="10" d="M330.865,140.786
		c-8.161,5.782-12.555,25.792-15.053,32.096c-6.379,16.1-15.377,24.924-26.898,34.621c4.979-7.892,5.744-10.386,8.496-20.252
		c4.012-14.386,3.254-59.504,5.732-71.058c0.396-3.404,3.926-13.615,7.094-14.894c4.752-2.552,7.105,5.235,12.65,6.513
		c5.543,0.85,12.262-9.064,16.62-6.086c1.977,1.277,3.576,5.883,4.367,7.586c7.936-10.211,43.27-18.766,49.604-20.045
		c-3.564,7.661-15.326,22.361-8.594,26.619c5.939,3.402,26.318-0.699,32.26-4.951c-10.693,15.74-8.084,39.046-17.857,57.17
		c-5.834,10.82-21.725,20.394-35.32,24.988c18.609,8.936,28.01-1.727,37.512-18.325c-0.398,5.532-1.439,10.517,2.832,15.167
		c4.188,4.557,9.025,6.057,12.793,11.359c9.242,13.005,6.602,32.278-9.803,35.291c-1.582,0.424-10.512,1.484-14.471-1.92
		c-6.732-6.385-7.795,1.519-11.754,7.05c-3.961,5.53-9.107,11.064-15.441,7.659c-5.545-2.553-5.238-9.763-11.57-10.186
		c-3.168,0-6.889,4.595-10.059,4.595c-3.562,0-7.67-2.921-11.234-3.771c13.064-5.532,24.943-6.806,29.297-23.4
		c-9.896-0.43-17.678,13.139-27.18,16.545c-5.545,2.125-13.204,3.452-18.747,4.303c-5.939,0.852-12.105-0.019-17.656-3.441
		c12.135,0.072,22.162-2.727,31.665-8.257c9.502-5.106,15.283-9.535,18.451-20.176c-13.064-2.978-24.483,18.31-29.151,15.939
		c-4.904-2.998,21.971-27.714,25.592-33.847c3.242-5.488,3.564-11.492,2.771-17.873c-6.334,0.852-12.271,16.595-14.25,20.426
		c-3.566,7.229-8.314,13.439-15.262,17.58c-3.732,2.227-11.09,2.703-17.424,3.129c14.91-6.24,21.82-17.27,27.286-28.377
		C334.098,170.501,342.904,136.803,330.865,140.786z"/>
	<g>
		<line fill="none" stroke="#000000" stroke-width="3" stroke-miterlimit="10" x1="189.492" y1="94.101" x2="200.523" y2="94.099"/>
		<path fill="none" stroke="#000000" stroke-width="3" stroke-miterlimit="10" d="M315.439,96.101
			c-0.281-2.139-9.219-33.327-34.547-2c0.574-7.467-1.045-19.675-8.771-20.082c-5.691-0.406-9.758,1.628-14.229,4.474
			c-13.828,8.54-9.76-7.726-21.146-6.913c-6.912,0.406-8.133,4.473-14.641-1.626c-4.877-4.474-6.707-9.478-13.213-11.103
			c-3.66-0.814-11.545-2.005-16.625,3.375c-2.125,2.25-4.09,10.836-1.875,16.125c2.811,6.71,6.941,10.274,10.131,15.748
			c0.201,0.347,0.4,0.701,0.594,1.064c3.254,6.101-1.984,20.938-1.984,20.938c-4.547-4.523-2.271-13.004-4.156-16.166
			c-2.482-4.164-6.99-5.99-8.715-10.057c-1.562-3.687,0.047-7.32-0.768-11.386l0,0c-8.115,4.956-13.334,7.923-18.688,11.774
			c-2.146,1.545-3.584,2.898-4.664,3.834c-2.129,1.843-4.516,3.906-6.334,5.166c-5.779,4.008-14.795,11.693-13.402,28.427
			c0.641,8.104,2.295,10.868,26.434,27.245c8.133,6.1,12.605,15.373,13.012,25.539c0.408,5.694-2.457,14.737-3.176,18.614
			c0,0,9.768-9.62,15.461-10.435c5.691-0.812,10.441,9.426,10.441,9.426c6.311-4.352,7.51-9.282,8.656-14.979
			c0,0,19.398,21.036,28.344,11.684c6.914-6.913,5.717-23.991,19.135-23.585l0,0c2.848,8.54-3.613,19.556-9.775,25.617
			c-3.93,3.864-11.848,7.261-13.41,12.108c-1.654,5.126,21.334-7.348,25.918-14.911c6.656-10.981,8.713-33.617,14.367-32.167
			c4.398,4.022-0.449,22.588-3.643,27.477c-5.139,7.857-11.807,16.033-19.531,20.911l0,0c10.98-0.815,19.111-6.506,24.803-15.45
			c9.76-15.858,12.605-39.035,12.199-57.741c-0.406-8.538-3.564-17.704-2.346-25.837c0.965-4.504,2.508-11.611,9.848-16.109
			C304.308,91.935,315.439,96.101,315.439,96.101z"/>
	</g>
</g>
</svg>
